<svg width="209" height="44" viewBox="0 0 209 44" fill="none" xmlns="http://www.w3.org/2000/svg">
<path d="M3.17756 0.572571L0.0813541 22.3212H5.6259L6.5705 15.6796H9.86247C14.7727 15.6796 18.3649 12.7366 19.0128 8.18085C19.3243 5.99223 18.8649 4.11429 17.6822 2.75166C16.445 1.32595 14.5074 0.572571 12.0786 0.572571H3.17756ZM8.06569 5.17792H10.4514C11.538 5.17792 12.3645 5.4688 12.841 6.01788C13.2739 6.51706 13.4299 7.21818 13.3041 8.10099C13.0317 10.0186 11.6164 11.1626 9.51889 11.1626H7.2135L8.06569 5.17792Z" fill="url(#paint0_linear_2340_12463)"/>
<path d="M22.6092 0.572571L19.5143 22.3212H33.9473L34.6069 17.687H25.7176L28.1529 0.572571H22.6092Z" fill="url(#paint1_linear_2340_12463)"/>
<path d="M57.6939 0.572571L57.0342 5.20681H63.4671L61.0314 22.3212H66.5468L68.982 5.20681H75.4153L76.0754 0.572571H57.6939Z" fill="url(#paint2_linear_2340_12463)"/>
<path d="M101.744 0.572571L100.024 12.6565L93.4746 0.572571H88.7605L85.6652 22.3212H91.2093L92.9236 10.2743L99.5386 22.3212H104.193L107.288 0.572571H101.744Z" fill="url(#paint3_linear_2340_12463)"/>
<path d="M123.808 0.579688L121.806 14.5145C121.503 16.6449 119.781 18.1329 117.62 18.1329C116.557 18.1329 115.696 17.7885 115.131 17.1374C114.574 16.4958 114.356 15.6165 114.502 14.5948L116.515 0.579688H110.972L108.91 14.9247C108.594 17.1508 109.085 19.0869 110.332 20.5229C111.772 22.1817 114.077 23.0587 116.999 23.0587C122.481 23.0587 126.625 19.8218 127.31 15.0045L129.381 0.579582L123.808 0.579688Z" fill="url(#paint4_linear_2340_12463)"/>
<path d="M78.6945 0.441292C78.4974 1.76875 75.8097 20.5262 75.5636 22.2765H81.578C81.7655 20.9559 84.4529 2.18938 84.7045 0.441292H78.6945Z" fill="url(#paint5_linear_2340_12463)"/>
<path d="M148.002 0.605873C147.612 1.59917 142.617 13.0252 142.617 13.0252L140.913 0.605873H133.686C133.358 1.71647 129.239 20.344 128.675 22.2765H134.059C135.167 17.9255 137.194 7.79028 137.332 7.10042L139.254 22.2765H143.52C143.932 21.3103 150.014 7.10042 150.014 7.10042L149.116 22.2765H154.523C154.511 20.7336 155.52 2.12357 155.517 0.605873H148.002Z" fill="url(#paint6_linear_2340_12463)"/>
<path d="M44.9472 0.441283C44.5243 1.35612 36.1936 20.1312 35.2048 22.2765H41.0637C41.3694 21.5434 42.8596 17.8623 42.8596 17.8623L49.6528 17.8573C49.6528 17.8573 50.0351 21.4134 50.1785 22.2764H55.9427C55.6194 20.4778 52.4771 1.72037 52.2467 0.441177H44.9473L44.9472 0.441283ZM47.9574 5.25094L49.077 13.3503H44.5081L47.9574 5.25094Z" fill="url(#paint7_linear_2340_12463)"/>
<path d="M79.3895 38.0716C79.3272 38.2776 79.2614 38.4945 79.1928 38.7222C79.1243 38.9499 79.0526 39.1731 78.9778 39.3913H78.931C78.8619 39.173 78.7934 38.9499 78.7249 38.7222C78.6564 38.4945 78.5847 38.2776 78.5094 38.0716L77.3303 34.8144H75.7949V41.7504H77.0398V38.858C77.0398 38.6334 77.029 38.3868 77.0074 38.1186C76.9853 37.8503 76.9618 37.5802 76.937 37.3088C76.9122 37.0374 76.887 36.7956 76.8621 36.5833H76.8996L77.4519 38.2119L78.5282 41.1233H79.324L80.3912 38.2119L80.962 36.5833H80.9995C80.9747 36.7958 80.9481 37.0374 80.9196 37.3088C80.8917 37.5802 80.8682 37.8503 80.8497 38.1186C80.8312 38.3868 80.8213 38.6334 80.8213 38.858V41.7504H82.0852V34.8144H80.5498L79.3892 38.0716H79.3895Z" fill="#747272"/>
<path d="M87.3462 40.0468C87.1712 40.2776 87.0045 40.4444 86.8449 40.5477C86.6861 40.6505 86.5004 40.7019 86.2884 40.7019C86.0264 40.7019 85.8358 40.6207 85.7172 40.4584C85.599 40.2961 85.5395 40.0125 85.5395 39.6067V36.5086H84.1729V39.7754C84.1729 40.4368 84.3004 40.9536 84.5566 41.3241C84.8122 41.6956 85.2239 41.8814 85.792 41.8814C86.1541 41.8814 86.4661 41.8003 86.7281 41.6379C86.9901 41.4756 87.2336 41.2605 87.4581 40.9922H87.496L87.5988 41.7502H88.7219V36.5085H87.3462V40.0468Z" fill="#747272"/>
<path d="M93.3083 40.7581C93.2145 40.7829 93.1244 40.7955 93.037 40.7955C92.8061 40.7955 92.628 40.7239 92.5031 40.5805C92.3787 40.4367 92.316 40.2153 92.316 39.9155V37.5943H93.6177V36.5086H92.316V35.0951H91.1834L91.0246 36.5086L90.2099 36.5744V37.5943H90.9498V39.9249C90.9498 40.3122 91.0058 40.6522 91.118 40.9452C91.2302 41.2387 91.4142 41.4682 91.6703 41.6332C91.9265 41.7983 92.2597 41.8812 92.6717 41.8812C92.9026 41.8812 93.11 41.8592 93.2944 41.8159C93.4784 41.7722 93.642 41.7285 93.7859 41.6846L93.5519 40.6832C93.4834 40.7084 93.4023 40.7332 93.3085 40.7581" fill="#747272"/>
<path d="M98.3725 40.0468C98.1975 40.2776 98.0308 40.4444 97.8712 40.5477C97.7124 40.6505 97.5267 40.7019 97.3147 40.7019C97.0527 40.7019 96.8621 40.6207 96.7435 40.4584C96.6253 40.2961 96.5658 40.0125 96.5658 39.6067V36.5086H95.1991V39.7754C95.1991 40.4368 95.3267 40.9536 95.5829 41.3241C95.8385 41.6956 96.2502 41.8814 96.8183 41.8814C97.1804 41.8814 97.4924 41.8003 97.7544 41.6379C98.0164 41.4756 98.2599 41.2605 98.4844 40.9922H98.5223L98.6251 41.7502H99.7482V36.5085H98.3725V40.0468Z" fill="#747272"/>
<path d="M104.531 40.2902C104.369 40.4525 104.208 40.5788 104.049 40.669C103.89 40.7596 103.713 40.8051 103.52 40.8051C103.314 40.8051 103.147 40.7582 103.019 40.6644C102.892 40.5706 102.828 40.4209 102.828 40.2153C102.828 40.0593 102.88 39.9173 102.987 39.7892C103.093 39.6616 103.271 39.5507 103.52 39.4569C103.77 39.363 104.107 39.2914 104.531 39.2413V40.2902ZM105.009 36.6394C104.709 36.465 104.338 36.3774 103.895 36.3774C103.62 36.3774 103.355 36.4103 103.099 36.4757C102.844 36.541 102.6 36.624 102.369 36.7237C102.138 36.8238 101.92 36.9393 101.714 37.0704L102.201 37.9875C102.444 37.8379 102.684 37.7161 102.921 37.6223C103.158 37.529 103.399 37.4821 103.642 37.4821C103.86 37.4821 104.033 37.5226 104.161 37.6038C104.289 37.685 104.381 37.7923 104.437 37.9266C104.494 38.061 104.525 38.2152 104.531 38.3896C103.482 38.5024 102.718 38.7129 102.238 39.0218C101.757 39.3307 101.517 39.7627 101.517 40.3181C101.517 40.6176 101.581 40.8863 101.709 41.1235C101.837 41.3607 102.018 41.5459 102.252 41.6803C102.486 41.8142 102.756 41.8814 103.062 41.8814C103.367 41.8814 103.651 41.816 103.913 41.6848C104.175 41.5535 104.419 41.3886 104.644 41.1888H104.69L104.784 41.7502H105.907V38.6896C105.907 38.1842 105.832 37.7598 105.682 37.4163C105.533 37.0736 105.309 36.8144 105.009 36.6394Z" fill="#747272"/>
<path d="M109.604 40.7534C109.58 40.7565 109.551 40.7579 109.521 40.7579C109.458 40.7579 109.397 40.7267 109.338 40.6646C109.278 40.6024 109.249 40.4933 109.249 40.3368V34.2809H107.873V40.2809C107.873 40.5993 107.915 40.8783 107.999 41.1187C108.084 41.359 108.219 41.5461 108.406 41.6805C108.593 41.8145 108.849 41.8812 109.174 41.8812C109.33 41.8812 109.466 41.869 109.581 41.8437C109.696 41.8189 109.795 41.791 109.876 41.7599L109.707 40.7395C109.664 40.7458 109.63 40.7502 109.604 40.7534Z" fill="#747272"/>
<path d="M114.182 41.7503H115.566V38.9422H118.029V37.7816H115.566V35.9748H118.45V34.8143H114.182V41.7503Z" fill="#747272"/>
<path d="M122.98 40.0468C122.805 40.2776 122.639 40.4444 122.479 40.5477C122.32 40.6505 122.134 40.7019 121.923 40.7019C121.661 40.7019 121.47 40.6207 121.352 40.4584C121.233 40.2961 121.174 40.0125 121.174 39.6067V36.5086H119.807V39.7754C119.807 40.4368 119.935 40.9536 120.191 41.3241C120.447 41.6956 120.859 41.8814 121.427 41.8814C121.789 41.8814 122.1 41.8003 122.363 41.6379C122.625 41.4756 122.868 41.2605 123.093 40.9922H123.13L123.233 41.7502H124.356V36.5085H122.98V40.0468Z" fill="#747272"/>
<path d="M129.346 36.3773C128.99 36.3773 128.675 36.4584 128.4 36.6208C128.126 36.7831 127.873 36.9766 127.642 37.2011H127.614L127.511 36.5086H126.387V41.7502H127.764V38.1467C127.957 37.9532 128.134 37.8067 128.293 37.7066C128.451 37.6069 128.637 37.5569 128.85 37.5569C129.111 37.5569 129.3 37.6381 129.416 37.8004C129.531 37.9627 129.589 38.2468 129.589 38.6522V41.7502H130.965V38.4835C130.965 37.8221 130.837 37.3058 130.581 36.9342C130.325 36.5631 129.914 36.3773 129.346 36.3773Z" fill="#747272"/>
<path d="M136.132 40.2058C135.982 40.3993 135.828 40.5381 135.668 40.6224C135.509 40.7067 135.336 40.7487 135.149 40.7487C134.918 40.7487 134.722 40.6879 134.56 40.5661C134.397 40.4443 134.274 40.2618 134.189 40.0187C134.105 39.7752 134.063 39.4727 134.063 39.1106C134.063 38.7612 134.113 38.468 134.213 38.2305C134.312 37.9937 134.445 37.8143 134.611 37.6926C134.776 37.5708 134.955 37.5099 135.149 37.5099C135.317 37.5099 135.484 37.5397 135.649 37.5987C135.815 37.6583 135.976 37.7598 136.132 37.9031L136.132 40.2058ZM136.132 34.2807V36.1243L136.179 36.9486C135.991 36.7736 135.796 36.6348 135.594 36.532C135.391 36.4287 135.143 36.3773 134.85 36.3773C134.475 36.3773 134.12 36.4895 133.782 36.7146C133.445 36.9392 133.172 37.2557 132.963 37.6646C132.754 38.0731 132.65 38.5615 132.65 39.1296C132.65 39.7036 132.737 40.1964 132.912 40.608C133.086 41.0201 133.334 41.3354 133.656 41.5535C133.977 41.7722 134.357 41.8813 134.793 41.8813C135.068 41.8813 135.33 41.8159 135.579 41.6847C135.829 41.5534 136.051 41.3943 136.244 41.2072H136.282L136.384 41.7501H137.507V34.2807H136.132Z" fill="#747272"/>
<path d="M3.31318 40.616C3.08777 40.9519 2.74733 41.1196 2.29099 41.1196C1.73326 41.1196 1.35137 40.9532 1.14523 40.6204C0.93962 40.2877 0.836817 39.808 0.836817 39.1803V39.1425C0.836817 38.49 0.93962 38.008 1.14523 37.6969C1.35127 37.3872 1.72687 37.2316 2.27205 37.2316C3.19101 37.2316 3.65048 37.8746 3.65048 39.1614C3.65048 39.7953 3.53772 40.28 3.31318 40.616ZM2.41457 36.5372C2.01505 36.5372 1.68911 36.6107 1.43567 36.7559C1.1818 36.902 0.98204 37.0828 0.836926 37.2978H0.789093C0.801213 37.1901 0.812577 37.0431 0.822425 36.856C0.831406 36.6689 0.836817 36.4683 0.836817 36.2523V34.4934H0V41.7189H0.598745L0.770048 41.0723H0.836817C0.982039 41.2752 1.1818 41.4497 1.43556 41.5953C1.689 41.7406 2.01494 41.8136 2.41446 41.8136C3.0421 41.8136 3.54887 41.5918 3.9353 41.1481C4.32216 40.7049 4.51565 40.0456 4.51565 39.1709C4.51565 38.2967 4.32357 37.6388 3.94082 37.1983C3.55666 36.7582 3.04805 36.5372 2.41457 36.5372Z" fill="#747272"/>
<path d="M8.1853 39.5131C8.09646 39.7729 8.01075 40.0312 7.92872 40.2877C7.84627 40.5447 7.78578 40.7522 7.7479 40.9104H7.71003C7.67172 40.7012 7.61491 40.4825 7.53873 40.2548C7.46254 40.0267 7.37727 39.7823 7.28215 39.5225L6.17967 36.6229H5.28604L7.33896 41.7378L7.07297 42.4128C6.96519 42.6847 6.82224 42.9038 6.64509 43.0684C6.46741 43.2334 6.23345 43.316 5.94171 43.316C5.83392 43.316 5.73069 43.3093 5.63286 43.297C5.53406 43.2844 5.4502 43.2713 5.38084 43.2587V43.9242C5.46329 43.9432 5.56123 43.9607 5.67572 43.9765C5.78978 43.9923 5.92277 44 6.07481 44C6.56945 44 6.95632 43.858 7.23497 43.5726C7.51362 43.2871 7.74444 42.9039 7.92894 42.4223L10.1252 36.623H9.22166L8.18552 39.5131H8.1853Z" fill="#747272"/>
<path d="M24.5679 34.6847C24.4285 34.5882 24.2649 34.5395 24.0796 34.5395C23.8884 34.5395 23.7225 34.5882 23.5864 34.6847C23.4461 34.784 23.3749 34.9594 23.3749 35.2064C23.3749 35.4539 23.4461 35.6307 23.5855 35.7331C23.7221 35.8328 23.8885 35.8828 24.0797 35.8828C24.265 35.8828 24.4291 35.8327 24.5685 35.7331C24.7119 35.6307 24.7849 35.454 24.7849 35.2064C24.7849 34.9594 24.7119 34.784 24.5681 34.6847" fill="#747272"/>
<path d="M24.7185 36.5265H23.442V41.7582H24.7185V36.5265Z" fill="#747272"/>
<path d="M29.6166 36.4459C29.5156 36.4364 29.4213 36.4315 29.337 36.4315C28.9814 36.4315 28.663 36.532 28.3916 36.7291C28.1287 36.9199 27.9182 37.1526 27.7639 37.4204L27.5921 36.5267H26.5974V41.7584H27.8743V39.0473C27.8743 38.7203 27.9411 38.4494 28.0731 38.2415C28.2044 38.0332 28.3793 37.8763 28.5934 37.7762C28.809 37.6747 29.0429 37.6224 29.2891 37.6224C29.3495 37.6224 29.4239 37.6274 29.5177 37.6374C29.6069 37.6463 29.6841 37.6577 29.7472 37.6698L29.7905 37.6779L29.9023 36.4871L29.8675 36.4804C29.8013 36.4665 29.7173 36.4557 29.6164 36.4461" fill="#747272"/>
<path d="M33.9082 39.7223C33.9082 40.1015 33.7915 40.3901 33.5615 40.5808C33.3288 40.7733 33.0402 40.8711 32.7025 40.8711C32.4775 40.8711 32.2949 40.8206 32.1606 40.7219C32.0276 40.6241 31.9622 40.4622 31.9622 40.2264C31.9622 39.964 32.0573 39.7611 32.2517 39.6056C32.4465 39.4505 32.8063 39.3621 33.3216 39.3436L33.9082 39.3259V39.7223ZM33.1016 36.4318C32.7458 36.4318 32.3986 36.4732 32.07 36.5566C31.7422 36.6396 31.4464 36.7491 31.1912 36.8826L31.1583 36.8997L31.5541 37.7708L31.5704 37.8068L31.6068 37.7906C31.8359 37.6847 32.0726 37.5945 32.3098 37.5209C32.5429 37.4502 32.7905 37.4136 33.0448 37.4136C33.3184 37.4136 33.534 37.4808 33.6837 37.6129C33.8329 37.7436 33.9082 37.9704 33.9082 38.2865V38.5052L33.0525 38.5323C32.2557 38.5643 31.6524 38.7171 31.2588 38.9855C30.8593 39.2587 30.6569 39.6731 30.6569 40.2164C30.6569 40.771 30.8151 41.1876 31.1272 41.4542C31.4375 41.7189 31.8329 41.8533 32.3032 41.8533C32.7325 41.8533 33.0778 41.7865 33.3299 41.6539C33.5738 41.5259 33.8083 41.3234 34.027 41.0533L34.2615 41.7581H35.1759V38.2583C35.1759 37.6401 34.997 37.1757 34.6439 36.8781C34.2926 36.582 33.774 36.4318 33.1018 36.4318" fill="#747272"/>
<path d="M38.0503 38.542C38.0851 38.1691 38.1973 37.8828 38.3826 37.6912C38.5734 37.4946 38.8276 37.395 39.1379 37.395C39.491 37.395 39.7538 37.506 39.9193 37.726C40.0812 37.9406 40.169 38.2148 40.1813 38.5421L38.0503 38.542ZM39.1379 36.4314C38.4137 36.4314 37.8235 36.669 37.3839 37.1379C36.9448 37.6059 36.722 38.2931 36.722 39.1805C36.722 39.7734 36.8338 40.2743 37.0552 40.6684C37.2766 41.0638 37.5877 41.3632 37.9796 41.5593C38.37 41.7541 38.8268 41.8528 39.3376 41.8528C39.7187 41.8528 40.051 41.8239 40.3255 41.7667C40.6006 41.7094 40.8693 41.6183 41.1232 41.4975L41.1452 41.4867V40.4402L41.0897 40.4654C40.8138 40.5911 40.541 40.6877 40.279 40.753C40.017 40.8188 39.7198 40.8523 39.3948 40.8523C38.9709 40.8523 38.635 40.726 38.3969 40.4789C38.1647 40.2381 38.0376 39.8946 38.0191 39.4572H41.4211V38.8097C41.4211 38.0671 41.2146 37.4787 40.8065 37.0607C40.3976 36.6432 39.8362 36.4312 39.1378 36.4312" fill="#747272"/>
<path d="M47.4354 38.8368L48.0166 37.1405C48.0418 37.0698 48.0748 36.9629 48.1175 36.8145C48.1581 36.6688 48.2028 36.5133 48.2501 36.3487C48.2813 36.2419 48.3092 36.14 48.3335 36.0439C48.3556 36.1219 48.3799 36.2089 48.4066 36.3054C48.4513 36.4678 48.499 36.6283 48.55 36.7825C48.6001 36.9381 48.6384 37.0561 48.664 37.1396L49.2357 38.8367H47.4352L47.4354 38.8368ZM49.0527 34.8631H47.6095L45.0899 41.7581H46.4674L47.0761 39.9613H49.5767L50.1854 41.7311L50.1948 41.7581H51.5723L49.0617 34.8888L49.0527 34.8631Z" fill="#747272"/>
<path d="M55.557 38.9897C55.3325 38.858 55.0651 38.7308 54.7621 38.6114C54.4568 38.4932 54.2165 38.3895 54.0479 38.3038C53.8855 38.2208 53.7711 38.1424 53.7083 38.0707C53.6475 38.0013 53.6177 37.9192 53.6177 37.821C53.6177 37.5473 53.863 37.4138 54.3671 37.4138C54.6033 37.4138 54.8364 37.4485 55.0592 37.5166C55.286 37.586 55.5214 37.6722 55.759 37.7717L55.7955 37.7875L56.2067 36.8307L56.1707 36.8149C55.8835 36.6878 55.5949 36.5908 55.3127 36.5273C55.029 36.4638 54.7242 36.4312 54.4055 36.4312C53.7981 36.4312 53.3013 36.5534 52.9293 36.7941C52.5518 37.038 52.3603 37.4033 52.3603 37.8777C52.3603 38.1753 52.4179 38.4223 52.532 38.6113C52.6456 38.7998 52.8165 38.9638 53.0402 39.1001C53.2589 39.2335 53.5375 39.3687 53.8676 39.5023C54.2012 39.6407 54.4519 39.7584 54.6138 39.8517C54.7734 39.9437 54.8812 40.0276 54.9343 40.1019C54.9872 40.1754 55.0124 40.2565 55.0124 40.3499C55.0124 40.5082 54.9466 40.6317 54.8113 40.726C54.6725 40.8225 54.4398 40.8712 54.12 40.8712C53.8518 40.8712 53.5627 40.8298 53.261 40.749C52.9567 40.667 52.6758 40.5659 52.426 40.4469L52.3696 40.4198V41.5259L52.3931 41.5358C52.6343 41.6445 52.8881 41.7252 53.1478 41.7762C53.4063 41.8276 53.7205 41.8533 54.0821 41.8533C54.7787 41.8533 55.322 41.7149 55.698 41.4417C56.0776 41.1662 56.2702 40.7572 56.2702 40.2266C56.2702 39.9227 56.2072 39.6706 56.0831 39.478C55.9605 39.2868 55.7837 39.1223 55.557 38.9897Z" fill="#747272"/>
<path d="M60.6429 38.9897C60.4183 38.858 60.1514 38.7308 59.8479 38.6114C59.5426 38.4932 59.3023 38.3895 59.1337 38.3038C58.9718 38.2208 58.8573 38.1424 58.7941 38.0707C58.7333 38.0013 58.7036 37.9192 58.7036 37.821C58.7036 37.5473 58.9489 37.4138 59.4534 37.4138C59.6892 37.4138 59.9223 37.4485 60.1455 37.5166C60.3719 37.586 60.6073 37.6722 60.8453 37.7717L60.8819 37.7875L61.2927 36.8307L61.2566 36.8149C60.9699 36.6878 60.6808 36.5908 60.3986 36.5273C60.1154 36.4638 59.8102 36.4312 59.4915 36.4312C58.8841 36.4312 58.3877 36.5534 58.0152 36.7941C57.6378 37.038 57.4462 37.4033 57.4462 37.8777C57.4462 38.1753 57.5039 38.4223 57.618 38.6113C57.7316 38.7998 57.9029 38.9638 58.1261 39.1001C58.3448 39.2335 58.6235 39.3687 58.9535 39.5023C59.2872 39.6407 59.5383 39.7584 59.6998 39.8517C59.8594 39.9437 59.9672 40.0276 60.0208 40.1019C60.0731 40.1754 60.0989 40.2565 60.0989 40.3499C60.0989 40.5082 60.0326 40.6317 59.8974 40.726C59.7585 40.8225 59.5263 40.8712 59.2061 40.8712C58.9383 40.8712 58.6488 40.8298 58.3471 40.749C58.0428 40.667 57.7619 40.5659 57.5126 40.4469L57.4562 40.4198V41.5259L57.4792 41.5358C57.7204 41.6445 57.9743 41.7252 58.234 41.7762C58.4924 41.8276 58.8071 41.8533 59.1682 41.8533C59.8649 41.8533 60.4081 41.7149 60.7842 41.4417C61.1643 41.1662 61.3564 40.7572 61.3564 40.2266C61.3564 39.9227 61.2938 39.6706 61.1693 39.478C61.0471 39.2868 60.8699 39.1223 60.6432 38.9897" fill="#747272"/>
<path d="M63.8793 38.542C63.914 38.1691 64.0263 37.8828 64.2116 37.6912C64.4024 37.4946 64.6566 37.395 64.9669 37.395C65.32 37.395 65.5828 37.506 65.7483 37.726C65.9102 37.9406 65.998 38.2148 66.0103 38.5421L63.8793 38.542ZM64.9669 36.4314C64.2431 36.4314 63.6525 36.669 63.2129 37.1379C62.7738 37.6059 62.551 38.2931 62.551 39.1805C62.551 39.7734 62.6628 40.2743 62.8842 40.6684C63.1056 41.0638 63.4167 41.3632 63.8085 41.5593C64.199 41.7541 64.6557 41.8528 65.1666 41.8528C65.5476 41.8528 65.88 41.8239 66.1541 41.7667C66.4296 41.7094 66.6983 41.6183 66.9521 41.4975L66.9742 41.4867V40.4402L66.9183 40.4654C66.6428 40.5911 66.3699 40.6877 66.108 40.753C65.8455 40.8188 65.5488 40.8523 65.2238 40.8523C64.7999 40.8523 64.464 40.726 64.2259 40.4789C63.9937 40.2381 63.8665 39.8946 63.848 39.4572H67.2501V38.8097C67.2501 38.0671 67.0436 37.4787 66.6355 37.0607C66.2266 36.6432 65.6652 36.4312 64.9667 36.4312" fill="#747272"/>
<path d="M71.2673 40.7721C71.1279 40.7996 70.985 40.8145 70.8425 40.8145C70.6572 40.8145 70.5012 40.7582 70.3795 40.6481C70.259 40.5395 70.1974 40.3686 70.1974 40.1404V37.5089H71.6618V36.5265H70.1974V35.3952H69.379L68.9944 36.5008L68.227 36.9229V37.509H68.921V40.1499C68.921 40.5922 68.9926 40.9411 69.1347 41.1869C69.2781 41.4344 69.4756 41.6094 69.7205 41.7076C69.9617 41.8046 70.2367 41.8533 70.5383 41.8533C70.762 41.8533 70.9789 41.8339 71.1826 41.7956C71.3882 41.7569 71.5582 41.7049 71.6877 41.64L71.7093 41.6287V40.6567L71.6579 40.6733C71.5389 40.7108 71.4077 40.7441 71.2675 40.7721" fill="#747272"/>
<path d="M17.8345 40.1977L16.0656 34.9183L16.0566 34.8917H14.2969V41.7583H15.4687V38.2012C15.4687 37.964 15.4642 37.7092 15.4543 37.4437C15.4449 37.175 15.4354 36.9243 15.426 36.6934C15.4205 36.5536 15.4137 36.4315 15.407 36.3282L17.2169 41.7312L17.2259 41.7583H18.3667L20.269 36.3124C20.2644 36.4198 20.2586 36.5496 20.2523 36.7024C20.2433 36.9338 20.2334 37.1777 20.2239 37.4347C20.2145 37.6872 20.21 37.9262 20.21 38.1439V41.7583H21.4486V34.8917H19.6888L17.8348 40.1977H17.8345Z" fill="#747272"/>
<path d="M3.17756 0.572571L0.0813541 22.3212H5.6259L6.5705 15.6796H9.86247C14.7727 15.6796 18.3649 12.7366 19.0128 8.18085C19.3243 5.99223 18.8649 4.11429 17.6822 2.75166C16.445 1.32595 14.5074 0.572571 12.0786 0.572571H3.17756ZM8.06569 5.17792H10.4514C11.538 5.17792 12.3645 5.4688 12.841 6.01788C13.2739 6.51706 13.4299 7.21818 13.3041 8.10099C13.0317 10.0186 11.6164 11.1626 9.51889 11.1626H7.2135L8.06569 5.17792Z" fill="url(#paint8_linear_2340_12463)"/>
<path d="M22.6092 0.572571L19.5143 22.3212H33.9473L34.6069 17.687H25.7176L28.1529 0.572571H22.6092Z" fill="url(#paint9_linear_2340_12463)"/>
<path d="M57.6939 0.572571L57.0342 5.20681H63.4671L61.0314 22.3212H66.5468L68.982 5.20681H75.4153L76.0754 0.572571H57.6939Z" fill="url(#paint10_linear_2340_12463)"/>
<path d="M101.744 0.572571L100.024 12.6565L93.4746 0.572571H88.7605L85.6652 22.3212H91.2093L92.9236 10.2743L99.5386 22.3212H104.193L107.288 0.572571H101.744Z" fill="url(#paint11_linear_2340_12463)"/>
<path d="M123.808 0.579688L121.806 14.5145C121.503 16.6449 119.781 18.1329 117.62 18.1329C116.557 18.1329 115.696 17.7885 115.131 17.1374C114.574 16.4958 114.356 15.6165 114.502 14.5948L116.515 0.579688H110.972L108.91 14.9247C108.594 17.1508 109.085 19.0869 110.332 20.5229C111.772 22.1817 114.077 23.0587 116.999 23.0587C122.481 23.0587 126.625 19.8218 127.31 15.0045L129.381 0.579582L123.808 0.579688Z" fill="url(#paint12_linear_2340_12463)"/>
<path d="M78.6945 0.441292C78.4974 1.76875 75.8097 20.5262 75.5636 22.2765H81.578C81.7655 20.9559 84.4529 2.18938 84.7045 0.441292H78.6945Z" fill="url(#paint13_linear_2340_12463)"/>
<path d="M148.002 0.605873C147.612 1.59917 142.617 13.0252 142.617 13.0252L140.913 0.605873H133.686C133.358 1.71647 129.239 20.344 128.675 22.2765H134.059C135.167 17.9255 137.194 7.79028 137.332 7.10042L139.254 22.2765H143.52C143.932 21.3103 150.014 7.10042 150.014 7.10042L149.116 22.2765H154.523C154.511 20.7336 155.52 2.12357 155.517 0.605873H148.002Z" fill="url(#paint14_linear_2340_12463)"/>
<path d="M44.9472 0.441283C44.5243 1.35612 36.1936 20.1312 35.2048 22.2765H41.0637C41.3694 21.5434 42.8596 17.8623 42.8596 17.8623L49.6528 17.8573C49.6528 17.8573 50.0351 21.4134 50.1785 22.2764H55.9427C55.6194 20.4778 52.4771 1.72037 52.2467 0.441177H44.9473L44.9472 0.441283ZM47.9574 5.25094L49.077 13.3503H44.5081L47.9574 5.25094Z" fill="url(#paint15_linear_2340_12463)"/>
<path d="M171.925 4.72937C170.027 4.72937 169.08 5.45256 168.903 6.47658C168.714 7.59118 169.648 8.2238 171.605 8.6454L173.353 9.06744C177.91 10.0612 179.661 12.3503 179.213 15.6941C178.571 19.9717 174.943 22.3817 169.43 22.3817C163.797 22.3817 160.505 19.9117 161.212 14.5498H166.695C166.496 16.5679 167.758 17.6523 170.016 17.6523C171.975 17.6523 173.146 16.8389 173.339 15.6941C173.46 14.6399 172.672 14.0376 170.31 13.4951L168.179 13.0131C164.475 12.1699 162.396 10.2722 162.878 6.89818C163.438 2.77113 167.48 0 172.601 0C177.843 0 180.726 2.80143 180.148 7.04881H174.636C174.726 5.573 173.883 4.72937 171.925 4.72937Z" fill="#908F90"/>
<path d="M186.874 22.1108H181.15L184.268 0.30117H189.992L186.874 22.1108Z" fill="#908F90"/>
<path d="M193.68 0.301376H208.892L208.229 4.9406H198.74L198.175 8.88639H206.7L206.037 13.5256H197.512L196.284 22.1111H190.561L193.68 0.301482L193.68 0.301376Z" fill="#908F90"/>
<defs>
<linearGradient id="paint0_linear_2340_12463" x1="0.720517" y1="11.4469" x2="154.864" y2="11.4469" gradientUnits="userSpaceOnUse">
<stop stop-color="#F89827"/>
<stop offset="0.79" stop-color="#EB6F26"/>
<stop offset="1" stop-color="#E76126"/>
</linearGradient>
<linearGradient id="paint1_linear_2340_12463" x1="0.720537" y1="11.4469" x2="154.864" y2="11.4469" gradientUnits="userSpaceOnUse">
<stop stop-color="#F89827"/>
<stop offset="0.79" stop-color="#EB6F26"/>
<stop offset="1" stop-color="#E76126"/>
</linearGradient>
<linearGradient id="paint2_linear_2340_12463" x1="0.720548" y1="11.4469" x2="154.864" y2="11.4469" gradientUnits="userSpaceOnUse">
<stop stop-color="#F89827"/>
<stop offset="0.79" stop-color="#EB6F26"/>
<stop offset="1" stop-color="#E76126"/>
</linearGradient>
<linearGradient id="paint3_linear_2340_12463" x1="0.720511" y1="11.4469" x2="154.864" y2="11.4469" gradientUnits="userSpaceOnUse">
<stop stop-color="#F89827"/>
<stop offset="0.79" stop-color="#EB6F26"/>
<stop offset="1" stop-color="#E76126"/>
</linearGradient>
<linearGradient id="paint4_linear_2340_12463" x1="0.7205" y1="11.8192" x2="154.864" y2="11.8192" gradientUnits="userSpaceOnUse">
<stop stop-color="#F89827"/>
<stop offset="0.79" stop-color="#EB6F26"/>
<stop offset="1" stop-color="#E76126"/>
</linearGradient>
<linearGradient id="paint5_linear_2340_12463" x1="0.720517" y1="11.3588" x2="154.864" y2="11.3588" gradientUnits="userSpaceOnUse">
<stop stop-color="#F89827"/>
<stop offset="0.79" stop-color="#EB6F26"/>
<stop offset="1" stop-color="#E76126"/>
</linearGradient>
<linearGradient id="paint6_linear_2340_12463" x1="0.720517" y1="11.4411" x2="154.864" y2="11.4411" gradientUnits="userSpaceOnUse">
<stop stop-color="#F89827"/>
<stop offset="0.79" stop-color="#EB6F26"/>
<stop offset="1" stop-color="#E76126"/>
</linearGradient>
<linearGradient id="paint7_linear_2340_12463" x1="0.720528" y1="11.3588" x2="154.864" y2="11.3588" gradientUnits="userSpaceOnUse">
<stop stop-color="#F89827"/>
<stop offset="0.79" stop-color="#EB6F26"/>
<stop offset="1" stop-color="#E76126"/>
</linearGradient>
<linearGradient id="paint8_linear_2340_12463" x1="0.720517" y1="11.4469" x2="154.864" y2="11.4469" gradientUnits="userSpaceOnUse">
<stop stop-color="#F89827"/>
<stop offset="0.79" stop-color="#EB6F26"/>
<stop offset="1" stop-color="#E76126"/>
</linearGradient>
<linearGradient id="paint9_linear_2340_12463" x1="0.720537" y1="11.4469" x2="154.864" y2="11.4469" gradientUnits="userSpaceOnUse">
<stop stop-color="#F89827"/>
<stop offset="0.79" stop-color="#EB6F26"/>
<stop offset="1" stop-color="#E76126"/>
</linearGradient>
<linearGradient id="paint10_linear_2340_12463" x1="0.720548" y1="11.4469" x2="154.864" y2="11.4469" gradientUnits="userSpaceOnUse">
<stop stop-color="#F89827"/>
<stop offset="0.79" stop-color="#EB6F26"/>
<stop offset="1" stop-color="#E76126"/>
</linearGradient>
<linearGradient id="paint11_linear_2340_12463" x1="0.720511" y1="11.4469" x2="154.864" y2="11.4469" gradientUnits="userSpaceOnUse">
<stop stop-color="#F89827"/>
<stop offset="0.79" stop-color="#EB6F26"/>
<stop offset="1" stop-color="#E76126"/>
</linearGradient>
<linearGradient id="paint12_linear_2340_12463" x1="0.7205" y1="11.8192" x2="154.864" y2="11.8192" gradientUnits="userSpaceOnUse">
<stop stop-color="#F89827"/>
<stop offset="0.79" stop-color="#EB6F26"/>
<stop offset="1" stop-color="#E76126"/>
</linearGradient>
<linearGradient id="paint13_linear_2340_12463" x1="0.720517" y1="11.3588" x2="154.864" y2="11.3588" gradientUnits="userSpaceOnUse">
<stop stop-color="#F89827"/>
<stop offset="0.79" stop-color="#EB6F26"/>
<stop offset="1" stop-color="#E76126"/>
</linearGradient>
<linearGradient id="paint14_linear_2340_12463" x1="0.720517" y1="11.4411" x2="154.864" y2="11.4411" gradientUnits="userSpaceOnUse">
<stop stop-color="#F89827"/>
<stop offset="0.79" stop-color="#EB6F26"/>
<stop offset="1" stop-color="#E76126"/>
</linearGradient>
<linearGradient id="paint15_linear_2340_12463" x1="0.720528" y1="11.3588" x2="154.864" y2="11.3588" gradientUnits="userSpaceOnUse">
<stop stop-color="#F89827"/>
<stop offset="0.79" stop-color="#EB6F26"/>
<stop offset="1" stop-color="#E76126"/>
</linearGradient>
</defs>
</svg>
