<svg width="132" height="32" viewBox="0 0 132 32" fill="none" xmlns="http://www.w3.org/2000/svg">
<path d="M41.8442 28.0092C41.8442 28.3832 41.7892 28.7204 41.6793 29.0202C41.5694 29.3202 41.4122 29.577 41.2072 29.7907C41.0023 30.0045 40.7544 30.168 40.4634 30.2807C40.1724 30.3934 39.8428 30.4499 39.4746 30.4499C39.1183 30.4499 38.7782 30.4233 38.4546 30.3698C38.131 30.3164 37.8623 30.2571 37.6484 30.1916V23.5997L38.7263 23.4216V25.8356C38.8511 25.7704 39.0039 25.7109 39.1851 25.6574C39.3662 25.604 39.5666 25.5773 39.7864 25.5773C40.1129 25.5773 40.4055 25.6351 40.6638 25.7509C40.9222 25.8667 41.1373 26.0316 41.3096 26.2454C41.4819 26.4591 41.6139 26.7161 41.7061 27.0159C41.7981 27.3158 41.8442 27.647 41.8442 28.0092ZM40.7395 27.9913C40.7395 27.5341 40.649 27.1718 40.4679 26.9045C40.2867 26.6374 40.0002 26.5037 39.6082 26.5037C39.4301 26.5037 39.2623 26.5305 39.105 26.5839C38.9475 26.6374 38.8212 26.6968 38.7263 26.7621V29.4433C38.8035 29.4612 38.903 29.4776 39.0247 29.4924C39.1465 29.5072 39.2934 29.5146 39.4658 29.5146C39.8635 29.5146 40.1753 29.3795 40.401 29.1093C40.6267 28.8391 40.7395 28.4665 40.7395 27.9913Z" fill="#003355"/>
<path d="M46.291 25.6753C45.8108 27.4451 45.2535 29.0486 44.6194 30.4857C44.5005 30.7528 44.3786 30.9815 44.2537 31.1716C44.1288 31.3616 43.9891 31.519 43.8347 31.6437C43.68 31.7684 43.5075 31.8589 43.3174 31.9154C43.1271 31.9717 42.9072 32.0001 42.6574 32.0001C42.4911 32.0001 42.326 31.9822 42.1626 31.9466C41.999 31.9109 41.8757 31.8722 41.7925 31.8308L41.9884 30.9667C42.2031 31.0498 42.415 31.0913 42.6238 31.0913C42.9042 31.0913 43.1234 31.0246 43.2815 30.8909C43.4396 30.7573 43.5782 30.5509 43.6976 30.2719C43.3576 29.6187 43.0311 28.906 42.7179 28.1339C42.4047 27.362 42.126 26.5425 41.8815 25.6753H43.0307C43.0902 25.9248 43.1632 26.1951 43.2497 26.486C43.3362 26.7769 43.4301 27.0725 43.5314 27.3723C43.6328 27.6723 43.7399 27.9707 43.8533 28.2675C43.9666 28.5646 44.0798 28.8407 44.1932 29.096C44.3823 28.5675 44.5596 28.0047 44.7253 27.408C44.8907 26.8111 45.0415 26.2336 45.1775 25.6753H46.291Z" fill="#003355"/>
<path d="M50.6557 30.4054C50.3291 30.4054 49.9995 30.395 49.667 30.3743C49.3343 30.3534 49.0434 30.3105 48.7939 30.2451V24.25C48.9246 24.2264 49.0642 24.2041 49.2127 24.1833C49.361 24.1625 49.5125 24.1462 49.667 24.1342C49.8213 24.1224 49.9743 24.1135 50.1257 24.1075C50.2772 24.1016 50.4211 24.0986 50.5578 24.0986C50.9319 24.0986 51.2793 24.1268 51.6 24.1833C51.9207 24.2397 52.1982 24.3333 52.4329 24.4638C52.6674 24.5945 52.8501 24.7667 52.9808 24.9805C53.1113 25.1943 53.1767 25.4586 53.1767 25.7733C53.1767 26.0644 53.1068 26.3137 52.9674 26.5215C52.8278 26.7295 52.6333 26.8957 52.3839 27.0204C52.7581 27.1451 53.0342 27.3293 53.2124 27.5727C53.3905 27.8163 53.4796 28.125 53.4796 28.4991C53.4796 29.1347 53.248 29.6113 52.7848 29.9289C52.3216 30.2466 51.6119 30.4054 50.6557 30.4054ZM49.8986 26.673H50.6914C51.119 26.673 51.4545 26.6122 51.698 26.4904C51.9415 26.3687 52.0632 26.1505 52.0632 25.8356C52.0632 25.5387 51.937 25.3279 51.6846 25.2032C51.4322 25.0785 51.1041 25.0161 50.7003 25.0161C50.528 25.0161 50.3752 25.0192 50.2415 25.025C50.1079 25.031 49.9935 25.04 49.8986 25.0517V26.673ZM49.8986 27.5549V29.4345C50.0233 29.4465 50.1569 29.4553 50.2994 29.4613C50.442 29.4672 50.5725 29.4702 50.6914 29.4702C50.923 29.4702 51.1381 29.4553 51.3372 29.4256C51.5361 29.396 51.7083 29.344 51.8539 29.2697C51.9993 29.1955 52.1151 29.096 52.2013 28.9713C52.2873 28.8466 52.3305 28.6862 52.3305 28.4902C52.3305 28.14 52.2027 27.8965 51.9474 27.7598C51.692 27.6232 51.3387 27.5549 50.8873 27.5549H49.8986Z" fill="#003355"/>
<path d="M55.8107 25.5595C56.1671 25.5595 56.4669 25.604 56.7104 25.6932C56.9539 25.7822 57.1484 25.907 57.2939 26.0672C57.4394 26.2276 57.5434 26.4222 57.6058 26.6507C57.6681 26.8795 57.6993 27.1304 57.6993 27.4035V30.2273C57.5329 30.263 57.282 30.3061 56.9465 30.3565C56.611 30.4069 56.2323 30.4322 55.8107 30.4322C55.5316 30.4322 55.2763 30.4054 55.0447 30.352C54.8131 30.2985 54.6155 30.2126 54.4523 30.0937C54.2889 29.975 54.1612 29.8206 54.0692 29.6305C53.977 29.4405 53.9312 29.206 53.9312 28.9267C53.9312 28.6595 53.9831 28.4339 54.087 28.2497C54.1909 28.0658 54.332 27.9157 54.5101 27.7999C54.6883 27.6841 54.8946 27.601 55.1293 27.5504C55.3638 27.5 55.6088 27.4747 55.8642 27.4747C55.9829 27.4747 56.1076 27.4823 56.2383 27.497C56.3689 27.5119 56.5085 27.537 56.657 27.5727V27.3946C56.657 27.2699 56.6422 27.1511 56.6125 27.0383C56.5827 26.9255 56.5308 26.826 56.4566 26.7398C56.3822 26.6538 56.2842 26.587 56.1626 26.5394C56.0408 26.4919 55.8879 26.4682 55.7038 26.4682C55.4544 26.4682 55.2258 26.486 55.0179 26.5215C54.81 26.5572 54.6408 26.5988 54.5101 26.6463L54.3766 25.7733C54.5131 25.7259 54.712 25.6783 54.9734 25.6308C55.2347 25.5833 55.5137 25.5595 55.8107 25.5595ZM55.8998 29.5771C56.2323 29.5771 56.4847 29.5592 56.657 29.5236V28.3299C56.5976 28.3121 56.5114 28.2943 56.3987 28.2765C56.2858 28.2586 56.1611 28.2497 56.0245 28.2497C55.9057 28.2497 55.7855 28.2586 55.6637 28.2765C55.542 28.2943 55.4321 28.327 55.3341 28.3744C55.2362 28.422 55.1574 28.4889 55.0981 28.5748C55.0387 28.661 55.009 28.7694 55.009 28.9001C55.009 29.1555 55.0892 29.3321 55.2495 29.43C55.4099 29.528 55.6266 29.5771 55.8998 29.5771Z" fill="#003355"/>
<path d="M58.5955 25.8267C58.8033 25.7675 59.0735 25.7109 59.4062 25.6575C59.7386 25.604 60.1068 25.5774 60.5107 25.5774C60.8907 25.5774 61.2084 25.6294 61.4639 25.7332C61.7192 25.8372 61.9227 25.9826 62.0741 26.1697C62.2255 26.3568 62.3324 26.5825 62.3948 26.8467C62.4571 27.1111 62.4883 27.4005 62.4883 27.7153V30.3342H61.4104V27.8845C61.4104 27.6351 61.3941 27.4228 61.3615 27.2476C61.3287 27.0725 61.2753 26.9299 61.2011 26.82C61.1268 26.7102 61.0259 26.63 60.8983 26.5795C60.7705 26.5291 60.6145 26.5037 60.4306 26.5037C60.2939 26.5037 60.1513 26.5126 60.0029 26.5305C59.8544 26.5483 59.7447 26.5632 59.6733 26.575V30.3342H58.5955V25.8267Z" fill="#003355"/>
<path d="M67.3297 30.1916C67.1159 30.2571 66.8472 30.3164 66.5235 30.3699C66.1998 30.4233 65.8599 30.45 65.5036 30.45C65.1352 30.45 64.8057 30.3935 64.5147 30.2808C64.2238 30.168 63.9758 30.0061 63.771 29.7953C63.5661 29.5845 63.4087 29.3291 63.2988 29.0291C63.1888 28.7294 63.134 28.3923 63.134 28.0181C63.134 27.65 63.1799 27.3159 63.2721 27.016C63.3641 26.7161 63.4992 26.4592 63.6774 26.2455C63.8556 26.0317 64.0723 25.8668 64.3277 25.751C64.583 25.6352 64.8769 25.5774 65.2096 25.5774C65.4352 25.5774 65.6341 25.604 65.8064 25.6575C65.9786 25.7109 66.1271 25.7704 66.2518 25.8356V23.5998L67.3297 23.4216V30.1916ZM64.2386 27.9913C64.2386 28.4666 64.3513 28.8391 64.5771 29.1094C64.8027 29.3796 65.1145 29.5146 65.5125 29.5146C65.6847 29.5146 65.8317 29.5073 65.9534 29.4924C66.0751 29.4776 66.1746 29.4613 66.2518 29.4434V26.771C66.1568 26.7057 66.0305 26.6449 65.8732 26.5884C65.7159 26.5321 65.5481 26.5037 65.3699 26.5037C64.9779 26.5037 64.6913 26.6374 64.5103 26.9046C64.3291 27.1719 64.2386 27.5342 64.2386 27.9913Z" fill="#003355"/>
<path d="M68.2622 30.3342V23.5998L69.3401 23.4216V25.7287C69.4588 25.6873 69.5969 25.6517 69.7543 25.6219C69.9116 25.5922 70.0675 25.5774 70.222 25.5774C70.5961 25.5774 70.9064 25.6294 71.1529 25.7332C71.3992 25.8372 71.5968 25.9826 71.7453 26.1697C71.8936 26.3568 71.9992 26.581 72.0615 26.8423C72.1238 27.1037 72.155 27.3946 72.155 27.7153V30.3342H71.0772V27.8845C71.0772 27.6351 71.0607 27.4228 71.0281 27.2476C70.9954 27.0725 70.9419 26.9299 70.8678 26.82C70.7934 26.7102 70.6941 26.63 70.5694 26.5795C70.4447 26.5291 70.2902 26.5037 70.1062 26.5037C69.9636 26.5037 69.8181 26.5187 69.6697 26.5483C69.5212 26.578 69.4113 26.6048 69.3401 26.6284V30.3342H68.2622Z" fill="#003355"/>
<path d="M74.5815 25.5595C74.9379 25.5595 75.2376 25.604 75.4812 25.6932C75.7246 25.7822 75.9191 25.907 76.0647 26.0672C76.2101 26.2276 76.3142 26.4222 76.3765 26.6507C76.4389 26.8795 76.47 27.1304 76.47 27.4035V30.2273C76.3036 30.263 76.0527 30.3061 75.7173 30.3565C75.3817 30.4069 75.0031 30.4322 74.5815 30.4322C74.3023 30.4322 74.047 30.4054 73.8154 30.352C73.5838 30.2985 73.3863 30.2126 73.2231 30.0937C73.0596 29.975 72.932 29.8206 72.84 29.6305C72.7478 29.4405 72.7019 29.206 72.7019 28.9267C72.7019 28.6595 72.7538 28.4339 72.8578 28.2497C72.9616 28.0658 73.1028 27.9157 73.2809 27.7999C73.459 27.6841 73.6654 27.601 73.9001 27.5504C74.1345 27.5 74.3795 27.4747 74.6349 27.4747C74.7537 27.4747 74.8784 27.4823 75.0091 27.497C75.1396 27.5119 75.2792 27.537 75.4277 27.5727V27.3946C75.4277 27.2699 75.4129 27.1511 75.3833 27.0383C75.3534 26.9255 75.3015 26.826 75.2273 26.7398C75.153 26.6538 75.055 26.587 74.9334 26.5394C74.8115 26.4919 74.6586 26.4682 74.4746 26.4682C74.2252 26.4682 73.9965 26.486 73.7887 26.5215C73.5808 26.5572 73.4115 26.5988 73.2809 26.6463L73.1473 25.7733C73.2839 25.7259 73.4828 25.6783 73.7442 25.6308C74.0054 25.5833 74.2845 25.5595 74.5815 25.5595ZM74.6706 29.5771C75.0031 29.5771 75.2554 29.5592 75.4277 29.5236V28.3299C75.3683 28.3121 75.2822 28.2943 75.1695 28.2765C75.0565 28.2586 74.9318 28.2497 74.7953 28.2497C74.6764 28.2497 74.5562 28.2586 74.4345 28.2765C74.3128 28.2943 74.2029 28.327 74.1049 28.3744C74.007 28.422 73.9282 28.4889 73.8689 28.5748C73.8094 28.661 73.7798 28.7694 73.7798 28.9001C73.7798 29.1555 73.86 29.3321 74.0203 29.43C74.1806 29.528 74.3974 29.5771 74.6706 29.5771Z" fill="#003355"/>
<path d="M77.366 25.8267C77.5739 25.7675 77.844 25.7109 78.1767 25.6575C78.5091 25.604 78.8773 25.5774 79.2812 25.5774C79.6612 25.5774 79.979 25.6294 80.2344 25.7332C80.4897 25.8372 80.6932 25.9826 80.8446 26.1697C80.996 26.3568 81.1029 26.5825 81.1653 26.8467C81.2276 27.1111 81.2588 27.4005 81.2588 27.7153V30.3342H80.1809V27.8845C80.1809 27.6351 80.1646 27.4228 80.132 27.2476C80.0993 27.0725 80.0458 26.9299 79.9716 26.82C79.8973 26.7102 79.7964 26.63 79.6688 26.5795C79.541 26.5291 79.385 26.5037 79.2011 26.5037C79.0644 26.5037 78.9218 26.5126 78.7734 26.5305C78.6249 26.5483 78.5152 26.5632 78.4438 26.575V30.3342H77.366V25.8267Z" fill="#003355"/>
<path d="M85.6103 24.161C85.7409 24.3868 85.8865 24.6628 86.0468 24.9894C86.2072 25.3161 86.3704 25.659 86.5368 26.0183C86.703 26.3776 86.8678 26.7429 87.0312 27.1139C87.1944 27.4851 87.3444 27.8281 87.481 28.1428C87.6175 27.8281 87.7661 27.4851 87.9264 27.1139C88.0868 26.7429 88.2501 26.3776 88.4164 26.0183C88.5826 25.659 88.746 25.3161 88.9064 24.9894C89.0667 24.6628 89.2122 24.3868 89.3428 24.161H90.3542C90.4086 24.6123 90.46 25.0919 90.5083 25.5996C90.5567 26.1074 90.6005 26.6271 90.6398 27.1585C90.679 27.69 90.7154 28.2246 90.7486 28.762C90.7818 29.2995 90.8107 29.8235 90.8349 30.3342H89.7303C89.7061 29.6157 89.6773 28.8763 89.644 28.1161C89.6108 27.356 89.5608 26.6195 89.4942 25.907C89.4288 26.0436 89.3518 26.2068 89.2626 26.3968C89.1735 26.587 89.0785 26.7933 88.9776 27.016C88.8765 27.2387 88.7741 27.4689 88.6703 27.7063C88.5663 27.9439 88.4653 28.174 88.3674 28.3967C88.2694 28.6194 88.1788 28.8274 88.0957 29.0203C88.0125 29.2133 87.9412 29.3782 87.882 29.5146H87.0446C86.9851 29.3782 86.9139 29.2118 86.8308 29.0159C86.7476 28.8198 86.657 28.6105 86.5591 28.3878C86.4611 28.1651 86.36 27.935 86.2562 27.6974C86.1522 27.46 86.0498 27.2312 85.9488 27.0115C85.8479 26.7919 85.7529 26.5855 85.6638 26.3924C85.5748 26.1995 85.4975 26.0376 85.4322 25.907C85.3655 26.6195 85.3156 27.356 85.2822 28.1161C85.249 28.8763 85.2203 29.6157 85.1961 30.3342H84.0916C84.1158 29.8235 84.1444 29.295 84.1777 28.7486C84.2109 28.2023 84.2473 27.6604 84.2866 27.1229C84.3258 26.5855 84.3697 26.0644 84.4181 25.5595C84.4663 25.0548 84.5178 24.5885 84.5723 24.161H85.6103Z" fill="#003355"/>
<path d="M95.5222 30.1916C95.3143 30.2451 95.0441 30.3001 94.7115 30.3565C94.3789 30.4128 94.0137 30.4411 93.6159 30.4411C93.2417 30.4411 92.9285 30.3877 92.6761 30.2808C92.4236 30.1738 92.2218 30.0254 92.0703 29.8353C91.9189 29.6453 91.8104 29.4182 91.7452 29.1539C91.6798 28.8897 91.6472 28.6002 91.6472 28.2854V25.6753H92.7251V28.1161C92.7251 28.615 92.7977 28.9713 92.9433 29.1851C93.0888 29.3988 93.3427 29.5057 93.7049 29.5057C93.8355 29.5057 93.9736 29.4999 94.1192 29.4879C94.2646 29.4761 94.373 29.4613 94.4444 29.4434V25.6753H95.5222V30.1916Z" fill="#003355"/>
<path d="M96.4182 24.446L97.4961 24.2679V25.6753H99.1529V26.575H97.4961V28.4724C97.4961 28.8466 97.5554 29.1138 97.6742 29.2741C97.793 29.4345 97.9949 29.5146 98.28 29.5146C98.4759 29.5146 98.6497 29.494 98.8011 29.4523C98.9525 29.4109 99.0728 29.3721 99.1619 29.3365L99.3401 30.1916C99.2154 30.2451 99.052 30.3001 98.8501 30.3565C98.6481 30.4128 98.4105 30.4411 98.1374 30.4411C97.8048 30.4411 97.5272 30.3966 97.3045 30.3075C97.0818 30.2184 96.9051 30.0892 96.7745 29.92C96.6439 29.7507 96.5518 29.5459 96.4983 29.3053C96.4449 29.0648 96.4182 28.7902 96.4182 28.4813V24.446Z" fill="#003355"/>
<path d="M103.552 30.1916C103.344 30.2451 103.074 30.3001 102.741 30.3565C102.409 30.4128 102.043 30.4411 101.645 30.4411C101.271 30.4411 100.958 30.3877 100.706 30.2808C100.453 30.1738 100.251 30.0254 100.1 29.8353C99.9485 29.6453 99.8401 29.4182 99.7748 29.1539C99.7094 28.8897 99.6768 28.6002 99.6768 28.2854V25.6753H100.755V28.1161C100.755 28.615 100.827 28.9713 100.973 29.1851C101.118 29.3988 101.372 29.5057 101.735 29.5057C101.865 29.5057 102.003 29.4999 102.149 29.4879C102.294 29.4761 102.403 29.4613 102.474 29.4434V25.6753H103.552V30.1916Z" fill="#003355"/>
<path d="M106.057 25.5595C106.413 25.5595 106.713 25.604 106.956 25.6932C107.2 25.7822 107.394 25.907 107.54 26.0672C107.685 26.2276 107.789 26.4222 107.852 26.6507C107.914 26.8795 107.945 27.1304 107.945 27.4035V30.2273C107.779 30.263 107.528 30.3061 107.192 30.3565C106.857 30.4069 106.478 30.4322 106.057 30.4322C105.777 30.4322 105.522 30.4054 105.29 30.352C105.059 30.2985 104.861 30.2126 104.698 30.0937C104.535 29.975 104.407 29.8206 104.315 29.6305C104.223 29.4405 104.177 29.206 104.177 28.9267C104.177 28.6595 104.229 28.4339 104.333 28.2497C104.437 28.0658 104.578 27.9157 104.756 27.7999C104.934 27.6841 105.14 27.601 105.375 27.5504C105.61 27.5 105.855 27.4747 106.11 27.4747C106.229 27.4747 106.353 27.4823 106.484 27.497C106.615 27.5119 106.754 27.537 106.903 27.5727V27.3946C106.903 27.2699 106.888 27.1511 106.858 27.0383C106.829 26.9255 106.777 26.826 106.702 26.7398C106.628 26.6538 106.53 26.587 106.408 26.5394C106.287 26.4919 106.134 26.4682 105.95 26.4682C105.7 26.4682 105.472 26.486 105.264 26.5215C105.056 26.5572 104.887 26.5988 104.756 26.6463L104.622 25.7733C104.759 25.7259 104.958 25.6783 105.219 25.6308C105.48 25.5833 105.76 25.5595 106.057 25.5595ZM106.146 29.5771C106.478 29.5771 106.731 29.5592 106.903 29.5236V28.3299C106.843 28.3121 106.757 28.2943 106.644 28.2765C106.532 28.2586 106.407 28.2497 106.27 28.2497C106.152 28.2497 106.031 28.2586 105.91 28.2765C105.788 28.2943 105.678 28.327 105.58 28.3744C105.482 28.422 105.403 28.4889 105.344 28.5748C105.285 28.661 105.255 28.7694 105.255 28.9001C105.255 29.1555 105.335 29.3321 105.495 29.43C105.656 29.528 105.872 29.5771 106.146 29.5771Z" fill="#003355"/>
<path d="M110.454 30.4233C110.133 30.4173 109.867 30.3816 109.656 30.3164C109.445 30.2511 109.278 30.1576 109.153 30.0358C109.028 29.9141 108.94 29.7627 108.89 29.5815C108.84 29.4004 108.814 29.194 108.814 28.9624V23.5998L109.892 23.4216V28.7575C109.892 28.8882 109.903 28.998 109.923 29.0871C109.944 29.1761 109.981 29.2519 110.035 29.3142C110.088 29.3766 110.161 29.4242 110.253 29.4568C110.345 29.4895 110.462 29.5146 110.605 29.5325L110.454 30.4233Z" fill="#003355"/>
<path d="M113.161 30.3342V24.161H117.063V25.1142H114.284V26.6908H116.751V27.644H114.284V30.3342H113.161Z" fill="#003355"/>
<path d="M121.276 30.1916C121.068 30.2451 120.798 30.3001 120.465 30.3565C120.133 30.4128 119.767 30.4411 119.37 30.4411C118.995 30.4411 118.682 30.3877 118.43 30.2808C118.177 30.1738 117.975 30.0254 117.824 29.8353C117.673 29.6453 117.564 29.4182 117.499 29.1539C117.433 28.8897 117.401 28.6002 117.401 28.2854V25.6753H118.479V28.1161C118.479 28.615 118.551 28.9713 118.697 29.1851C118.842 29.3988 119.096 29.5057 119.459 29.5057C119.589 29.5057 119.727 29.4999 119.873 29.4879C120.018 29.4761 120.127 29.4613 120.198 29.4434V25.6753H121.276V30.1916Z" fill="#003355"/>
<path d="M122.208 25.8267C122.416 25.7675 122.686 25.7109 123.019 25.6575C123.352 25.604 123.72 25.5774 124.124 25.5774C124.504 25.5774 124.821 25.6294 125.077 25.7332C125.332 25.8372 125.536 25.9826 125.687 26.1697C125.839 26.3568 125.945 26.5825 126.008 26.8467C126.07 27.1111 126.101 27.4005 126.101 27.7153V30.3342H125.023V27.8845C125.023 27.6351 125.007 27.4228 124.974 27.2476C124.942 27.0725 124.888 26.9299 124.814 26.82C124.74 26.7102 124.639 26.63 124.511 26.5795C124.383 26.5291 124.228 26.5037 124.043 26.5037C123.907 26.5037 123.764 26.5126 123.616 26.5305C123.467 26.5483 123.358 26.5632 123.286 26.575V30.3342H122.208V25.8267Z" fill="#003355"/>
<path d="M130.943 30.1916C130.729 30.2571 130.46 30.3164 130.137 30.3699C129.813 30.4233 129.473 30.45 129.117 30.45C128.748 30.45 128.419 30.3935 128.128 30.2808C127.837 30.168 127.589 30.0061 127.384 29.7953C127.179 29.5845 127.022 29.3291 126.912 29.0291C126.802 28.7294 126.747 28.3923 126.747 28.0181C126.747 27.65 126.793 27.3159 126.885 27.016C126.977 26.7161 127.112 26.4592 127.29 26.2455C127.469 26.0317 127.685 25.8668 127.941 25.751C128.196 25.6352 128.49 25.5774 128.823 25.5774C129.048 25.5774 129.247 25.604 129.419 25.6575C129.592 25.7109 129.74 25.7704 129.865 25.8356V23.5998L130.943 23.4216V30.1916ZM127.852 27.9913C127.852 28.4666 127.964 28.8391 128.19 29.1094C128.416 29.3796 128.728 29.5146 129.125 29.5146C129.298 29.5146 129.445 29.5073 129.566 29.4924C129.688 29.4776 129.788 29.4613 129.865 29.4434V26.771C129.77 26.7057 129.644 26.6449 129.486 26.5884C129.329 26.5321 129.161 26.5037 128.983 26.5037C128.591 26.5037 128.304 26.6374 128.123 26.9046C127.942 27.1719 127.852 27.5342 127.852 27.9913Z" fill="#003355"/>
<path d="M33.4983 19.8815C33.2077 19.1129 32.9348 18.3571 32.6785 17.614C32.4223 16.8711 32.1573 16.1153 31.8843 15.3466H23.8395L22.2253 19.8815H19.6377C20.3206 18.0027 20.9612 16.265 21.5593 14.6677C22.157 13.0708 22.7418 11.5549 23.3142 10.1201C23.8863 8.68534 24.4543 7.31466 25.018 6.00796C25.5817 4.70136 26.1709 3.40754 26.7859 2.12649H29.0661C29.6809 3.40754 30.2702 4.70136 30.8338 6.00796C31.3975 7.31466 31.9651 8.68534 32.5376 10.1201C33.1096 11.5549 33.6946 13.0708 34.2926 14.6677C34.8903 16.265 35.5308 18.0027 36.2141 19.8815H33.4983ZM31.1669 13.297C30.6201 11.811 30.078 10.3722 29.54 8.98C29.002 7.58806 28.4423 6.25141 27.8619 4.97036C27.2638 6.25141 26.6961 7.58806 26.1581 8.98C25.6201 10.3722 25.0861 11.811 24.5569 13.297H31.1669Z" fill="#45194B"/>
<path d="M42.3885 6.27696C42.5936 6.27696 42.8281 6.28984 43.0931 6.31539C43.3578 6.34105 43.6184 6.37549 43.8746 6.4179C44.1307 6.46073 44.3654 6.50355 44.5791 6.54607C44.7925 6.58889 44.9506 6.62732 45.0531 6.66136L44.6432 8.73654C44.455 8.66847 44.1436 8.58722 43.708 8.49319C43.2725 8.39947 42.7128 8.35225 42.0299 8.35225C41.5855 8.35225 41.146 8.39947 40.7104 8.49319C40.2749 8.58722 39.9886 8.6513 39.8522 8.68534V19.8815H37.4695V7.12251C38.0331 6.91749 38.7333 6.72534 39.5703 6.54607C40.407 6.3667 41.3466 6.27696 42.3885 6.27696Z" fill="#45194B"/>
<path d="M56.9353 19.4972C56.3885 19.634 55.6672 19.779 54.7704 19.9327C53.8738 20.0864 52.8361 20.1632 51.6575 20.1632C50.6327 20.1632 49.77 20.0136 49.0699 19.715C48.3694 19.4163 47.8057 18.9936 47.3789 18.4467C46.9518 17.9003 46.6443 17.2554 46.4566 16.5124C46.2684 15.7694 46.1748 14.9455 46.1748 14.04V6.55885H48.5575V13.5276C48.5575 15.1505 48.8137 16.3118 49.3261 17.0119C49.8385 17.7126 50.7008 18.0624 51.9138 18.0624C52.17 18.0624 52.4346 18.054 52.708 18.0368C52.981 18.02 53.2372 17.9983 53.4766 17.9728C53.7155 17.9471 53.9333 17.9215 54.1299 17.8959C54.3261 17.8703 54.467 17.8406 54.5527 17.8062V6.55885H56.9353V19.4972Z" fill="#45194B"/>
<path d="M68.3773 0.409947L70.76 0V19.4972C70.2132 19.6509 69.513 19.8046 68.6592 19.9583C67.8048 20.112 66.8228 20.1889 65.7128 20.1889C64.688 20.1889 63.7657 20.0264 62.9458 19.7021C62.1259 19.3779 61.4254 18.9167 60.8449 18.3186C60.264 17.7209 59.8157 16.9908 59.4998 16.1281C59.1836 15.2658 59.0259 14.2962 59.0259 13.2201C59.0259 12.1953 59.1579 11.2562 59.4229 10.4019C59.6876 9.54805 60.0762 8.8134 60.5887 8.19853C61.1011 7.58366 61.7288 7.10565 62.4717 6.76377C63.2148 6.4223 64.0643 6.25141 65.0211 6.25141C65.7896 6.25141 66.4686 6.35392 67.0578 6.55885C67.6471 6.76377 68.0867 6.96031 68.3773 7.14806V0.409947ZM68.3773 9.37706C68.0867 9.13811 67.6683 8.90753 67.1219 8.68534C66.5751 8.46355 65.9774 8.35225 65.3285 8.35225C64.6451 8.35225 64.0602 8.47633 63.5735 8.72377C63.0867 8.97151 62.6895 9.31298 62.3821 9.74858C62.0747 10.1841 61.8525 10.7009 61.716 11.2986C61.5791 11.8967 61.511 12.5372 61.511 13.2201C61.511 14.7746 61.8953 15.9743 62.664 16.8198C63.4326 17.6653 64.4574 18.0881 65.7384 18.0881C66.3873 18.0881 66.9298 18.0584 67.3652 17.9983C67.8009 17.9387 68.1379 17.8747 68.3773 17.8062V9.37706Z" fill="#45194B"/>
<path d="M73.4883 19.8815V0.409947L75.871 0V6.81508C76.315 6.64449 76.7889 6.51204 77.293 6.4179C77.7966 6.32428 78.2961 6.27696 78.7917 6.27696C79.8506 6.27696 80.7301 6.42669 81.4307 6.72534C82.1308 7.02439 82.6901 7.44272 83.1088 7.98073C83.5271 8.51884 83.8218 9.16376 83.9927 9.91508C84.1633 10.6669 84.2489 11.4952 84.2489 12.4003V19.8815H81.8662V12.9127C81.8662 12.0929 81.8106 11.3927 81.6997 10.8118C81.5884 10.2314 81.405 9.76136 81.1488 9.40272C80.8926 9.04398 80.5507 8.78376 80.124 8.62125C79.6969 8.45916 79.1672 8.3779 78.5355 8.3779C78.2794 8.3779 78.0144 8.39507 77.7413 8.42911C77.4679 8.46355 77.2072 8.50198 76.9599 8.5444C76.7121 8.58722 76.4899 8.63413 76.2937 8.68534C76.0972 8.73654 75.9562 8.77937 75.871 8.8134V19.8815H73.4883Z" fill="#45194B"/>
<path d="M91.0767 6.22576C92.033 6.22576 92.8401 6.34984 93.4978 6.59728C94.1551 6.84502 94.6848 7.19538 95.0862 7.64775C95.4874 8.10041 95.7737 8.63853 95.9446 9.26178C96.1151 9.88554 96.2008 10.5729 96.2008 11.3242V19.6509C95.9958 19.6853 95.7096 19.7321 95.3425 19.7918C94.9749 19.8518 94.5611 19.9071 94.0999 19.9583C93.6387 20.0095 93.1391 20.0564 92.6011 20.0993C92.0631 20.1417 91.5291 20.1632 90.9999 20.1632C90.248 20.1632 89.5563 20.0864 88.9246 19.9327C88.2924 19.7789 87.746 19.5356 87.2849 19.2025C86.8237 18.8694 86.465 18.4299 86.2088 17.883C85.9526 17.3366 85.8245 16.6789 85.8245 15.9103C85.8245 15.1761 85.9738 14.544 86.2728 14.0143C86.5715 13.4851 86.9774 13.058 87.4898 12.7334C88.0023 12.4091 88.5999 12.1697 89.2832 12.016C89.9661 11.8623 90.6835 11.7854 91.4354 11.7854C91.6743 11.7854 91.9222 11.7982 92.1784 11.8239C92.4345 11.8494 92.678 11.8839 92.9085 11.9263C93.1391 11.9691 93.3396 12.0075 93.5106 12.0416C93.6811 12.076 93.8009 12.1017 93.8693 12.1184V11.4524C93.8693 11.0596 93.8265 10.6709 93.7412 10.2866C93.6556 9.9023 93.5018 9.56083 93.2801 9.26178C93.0579 8.96313 92.7548 8.72377 92.3705 8.5444C91.9862 8.36513 91.4866 8.27539 90.8717 8.27539C90.0859 8.27539 89.3985 8.33109 88.8093 8.44199C88.22 8.55319 87.7801 8.66847 87.4898 8.78785L87.208 6.81508C87.5155 6.67853 88.0278 6.54607 88.7452 6.4179C89.4626 6.28984 90.2396 6.22576 91.0767 6.22576ZM91.2816 18.1649C91.8453 18.1649 92.3449 18.152 92.7805 18.1265C93.216 18.1008 93.5787 18.054 93.8693 17.9855V14.0143C93.6984 13.9291 93.4209 13.8566 93.0366 13.7966C92.6523 13.737 92.1868 13.7069 91.6404 13.7069C91.2816 13.7069 90.9013 13.7326 90.5003 13.7838C90.0987 13.8351 89.7316 13.9419 89.3985 14.1041C89.0655 14.2666 88.7876 14.4884 88.5659 14.7702C88.3437 15.052 88.2328 15.4236 88.2328 15.8847C88.2328 16.7389 88.5058 17.3322 89.0526 17.6653C89.5991 17.9983 90.3421 18.1649 91.2816 18.1649Z" fill="#45194B"/>
<path d="M107.442 18.1136C110.038 18.1136 111.337 17.2258 111.337 15.4491C111.337 14.9027 111.221 14.4372 110.991 14.0528C110.76 13.6685 110.448 13.3354 110.055 13.0536C109.662 12.7718 109.214 12.5284 108.71 12.3235C108.206 12.1184 107.673 11.9135 107.109 11.7086C106.46 11.4868 105.845 11.2346 105.264 10.9528C104.684 10.6709 104.18 10.3378 103.753 9.95351C103.326 9.56921 102.988 9.11246 102.741 8.58283C102.493 8.0536 102.369 7.41308 102.369 6.66136C102.369 5.10732 102.899 3.89434 103.958 3.02324C105.017 2.15215 106.477 1.71655 108.339 1.71655C109.415 1.71655 110.393 1.83183 111.272 2.06241C112.152 2.29299 112.797 2.54523 113.207 2.81822L112.413 4.8423C112.054 4.62052 111.52 4.40271 110.811 4.1889C110.102 3.9756 109.278 3.86869 108.339 3.86869C107.861 3.86869 107.417 3.9199 107.007 4.02241C106.597 4.12492 106.238 4.27864 105.931 4.48356C105.623 4.68858 105.38 4.94911 105.2 5.26502C105.021 5.58125 104.931 5.95277 104.931 6.37948C104.931 6.8579 105.025 7.25936 105.213 7.58366C105.401 7.90827 105.666 8.19455 106.007 8.44199C106.349 8.68973 106.746 8.91591 107.199 9.12084C107.651 9.32586 108.151 9.53078 108.698 9.73581C109.466 10.0432 110.171 10.3507 110.811 10.6581C111.452 10.9655 112.007 11.3331 112.477 11.7598C112.946 12.1869 113.309 12.695 113.565 13.2842C113.822 13.8735 113.95 14.5868 113.95 15.4236C113.95 16.9779 113.382 18.1737 112.246 19.0104C111.11 19.8474 109.509 20.2658 107.442 20.2658C106.742 20.2658 106.097 20.2185 105.508 20.1248C104.919 20.0308 104.393 19.9199 103.932 19.7918C103.471 19.6637 103.074 19.5272 102.741 19.3819C102.408 19.237 102.147 19.1129 101.959 19.0104L102.702 16.9607C103.095 17.1829 103.693 17.4307 104.496 17.7038C105.299 17.9772 106.28 18.1136 107.442 18.1136Z" fill="#45194B"/>
<path d="M115.943 2.12649H118.428V19.8815H115.943V2.12649Z" fill="#45194B"/>
<path d="M120.913 19.8815V2.12649H131.623V4.25298H123.398V9.60764H130.7V11.7086H123.398V19.8815H120.913Z" fill="#45194B"/>
<path d="M33.4983 19.8815C33.2077 19.1129 32.9348 18.3571 32.6785 17.614C32.4223 16.8711 32.1573 16.1153 31.8843 15.3466H23.8395L22.2253 19.8815H19.6377C20.3206 18.0027 20.9612 16.265 21.5593 14.6677C22.157 13.0708 22.7418 11.5549 23.3142 10.1201C23.8863 8.68534 24.4543 7.31466 25.018 6.00796C25.5817 4.70136 26.1709 3.40754 26.7859 2.12649H29.0661C29.6809 3.40754 30.2702 4.70136 30.8338 6.00796C31.3975 7.31466 31.9651 8.68534 32.5376 10.1201C33.1096 11.5549 33.6946 13.0708 34.2926 14.6677C34.8903 16.265 35.5308 18.0027 36.2141 19.8815H33.4983ZM31.1669 13.297C30.6201 11.811 30.078 10.3722 29.54 8.98C29.002 7.58806 28.4423 6.25141 27.8619 4.97036C27.2638 6.25141 26.6961 7.58806 26.1581 8.98C25.6201 10.3722 25.0861 11.811 24.5569 13.297H31.1669Z" fill="#003355"/>
<path d="M42.3885 6.27696C42.5936 6.27696 42.8281 6.28984 43.0931 6.31539C43.3578 6.34105 43.6184 6.37549 43.8746 6.4179C44.1307 6.46073 44.3654 6.50355 44.5791 6.54607C44.7925 6.58889 44.9506 6.62732 45.0531 6.66136L44.6432 8.73654C44.455 8.66847 44.1436 8.58722 43.708 8.49319C43.2725 8.39947 42.7128 8.35225 42.0299 8.35225C41.5855 8.35225 41.146 8.39947 40.7104 8.49319C40.2749 8.58722 39.9886 8.6513 39.8522 8.68534V19.8815H37.4695V7.12251C38.0331 6.91749 38.7333 6.72534 39.5703 6.54607C40.407 6.3667 41.3466 6.27696 42.3885 6.27696Z" fill="#003355"/>
<path d="M56.9353 19.4972C56.3885 19.634 55.6672 19.779 54.7704 19.9327C53.8738 20.0864 52.8361 20.1632 51.6575 20.1632C50.6327 20.1632 49.77 20.0136 49.0699 19.715C48.3694 19.4163 47.8057 18.9936 47.3789 18.4467C46.9518 17.9003 46.6443 17.2554 46.4566 16.5124C46.2684 15.7694 46.1748 14.9455 46.1748 14.04V6.55885H48.5575V13.5276C48.5575 15.1505 48.8137 16.3118 49.3261 17.0119C49.8385 17.7126 50.7008 18.0624 51.9138 18.0624C52.17 18.0624 52.4346 18.054 52.708 18.0368C52.981 18.02 53.2372 17.9983 53.4766 17.9728C53.7155 17.9471 53.9333 17.9215 54.1299 17.8959C54.3261 17.8703 54.467 17.8406 54.5527 17.8062V6.55885H56.9353V19.4972Z" fill="#003355"/>
<path d="M68.3773 0.409947L70.76 0V19.4972C70.2132 19.6509 69.513 19.8046 68.6592 19.9583C67.8048 20.112 66.8228 20.1889 65.7128 20.1889C64.688 20.1889 63.7657 20.0264 62.9458 19.7021C62.1259 19.3779 61.4254 18.9167 60.8449 18.3186C60.264 17.7209 59.8157 16.9908 59.4998 16.1281C59.1836 15.2658 59.0259 14.2962 59.0259 13.2201C59.0259 12.1953 59.1579 11.2562 59.4229 10.4019C59.6876 9.54805 60.0762 8.8134 60.5887 8.19853C61.1011 7.58366 61.7288 7.10565 62.4717 6.76377C63.2148 6.4223 64.0643 6.25141 65.0211 6.25141C65.7896 6.25141 66.4686 6.35392 67.0578 6.55885C67.6471 6.76377 68.0867 6.96031 68.3773 7.14806V0.409947ZM68.3773 9.37706C68.0867 9.13811 67.6683 8.90753 67.1219 8.68534C66.5751 8.46355 65.9774 8.35225 65.3285 8.35225C64.6451 8.35225 64.0602 8.47633 63.5735 8.72377C63.0867 8.97151 62.6895 9.31298 62.3821 9.74858C62.0747 10.1841 61.8525 10.7009 61.716 11.2986C61.5791 11.8967 61.511 12.5372 61.511 13.2201C61.511 14.7746 61.8953 15.9743 62.664 16.8198C63.4326 17.6653 64.4574 18.0881 65.7384 18.0881C66.3873 18.0881 66.9298 18.0584 67.3652 17.9983C67.8009 17.9387 68.1379 17.8747 68.3773 17.8062V9.37706Z" fill="#003355"/>
<path d="M73.4883 19.8815V0.409947L75.871 0V6.81508C76.315 6.64449 76.7889 6.51204 77.293 6.4179C77.7966 6.32428 78.2961 6.27696 78.7917 6.27696C79.8506 6.27696 80.7301 6.42669 81.4307 6.72534C82.1308 7.02439 82.6901 7.44272 83.1088 7.98073C83.5271 8.51884 83.8218 9.16376 83.9927 9.91508C84.1633 10.6669 84.2489 11.4952 84.2489 12.4003V19.8815H81.8662V12.9127C81.8662 12.0929 81.8106 11.3927 81.6997 10.8118C81.5884 10.2314 81.405 9.76136 81.1488 9.40272C80.8926 9.04398 80.5507 8.78376 80.124 8.62125C79.6969 8.45916 79.1672 8.3779 78.5355 8.3779C78.2794 8.3779 78.0144 8.39507 77.7413 8.42911C77.4679 8.46355 77.2072 8.50198 76.9599 8.5444C76.7121 8.58722 76.4899 8.63413 76.2937 8.68534C76.0972 8.73654 75.9562 8.77937 75.871 8.8134V19.8815H73.4883Z" fill="#003355"/>
<path d="M91.0767 6.22576C92.033 6.22576 92.8401 6.34984 93.4978 6.59728C94.1551 6.84502 94.6848 7.19538 95.0862 7.64775C95.4874 8.10041 95.7737 8.63853 95.9446 9.26178C96.1151 9.88554 96.2008 10.5729 96.2008 11.3242V19.6509C95.9958 19.6853 95.7096 19.7321 95.3425 19.7918C94.9749 19.8518 94.5611 19.9071 94.0999 19.9583C93.6387 20.0095 93.1391 20.0564 92.6011 20.0993C92.0631 20.1417 91.5291 20.1632 90.9999 20.1632C90.248 20.1632 89.5563 20.0864 88.9246 19.9327C88.2924 19.7789 87.746 19.5356 87.2849 19.2025C86.8237 18.8694 86.465 18.4299 86.2088 17.883C85.9526 17.3366 85.8245 16.6789 85.8245 15.9103C85.8245 15.1761 85.9738 14.544 86.2728 14.0143C86.5715 13.4851 86.9774 13.058 87.4898 12.7334C88.0023 12.4091 88.5999 12.1697 89.2832 12.016C89.9661 11.8623 90.6835 11.7854 91.4354 11.7854C91.6743 11.7854 91.9222 11.7982 92.1784 11.8239C92.4345 11.8494 92.678 11.8839 92.9085 11.9263C93.1391 11.9691 93.3396 12.0075 93.5106 12.0416C93.6811 12.076 93.8009 12.1017 93.8693 12.1184V11.4524C93.8693 11.0596 93.8265 10.6709 93.7412 10.2866C93.6556 9.9023 93.5018 9.56083 93.2801 9.26178C93.0579 8.96313 92.7548 8.72377 92.3705 8.5444C91.9862 8.36513 91.4866 8.27539 90.8717 8.27539C90.0859 8.27539 89.3985 8.33109 88.8093 8.44199C88.22 8.55319 87.7801 8.66847 87.4898 8.78785L87.208 6.81508C87.5155 6.67853 88.0278 6.54607 88.7452 6.4179C89.4626 6.28984 90.2396 6.22576 91.0767 6.22576ZM91.2816 18.1649C91.8453 18.1649 92.3449 18.152 92.7805 18.1265C93.216 18.1008 93.5787 18.054 93.8693 17.9855V14.0143C93.6984 13.9291 93.4209 13.8566 93.0366 13.7966C92.6523 13.737 92.1868 13.7069 91.6404 13.7069C91.2816 13.7069 90.9013 13.7326 90.5003 13.7838C90.0987 13.8351 89.7316 13.9419 89.3985 14.1041C89.0655 14.2666 88.7876 14.4884 88.5659 14.7702C88.3437 15.052 88.2328 15.4236 88.2328 15.8847C88.2328 16.7389 88.5058 17.3322 89.0526 17.6653C89.5991 17.9983 90.3421 18.1649 91.2816 18.1649Z" fill="#003355"/>
<path d="M107.442 18.1136C110.038 18.1136 111.337 17.2258 111.337 15.4491C111.337 14.9027 111.221 14.4372 110.991 14.0528C110.76 13.6685 110.448 13.3354 110.055 13.0536C109.662 12.7718 109.214 12.5284 108.71 12.3235C108.206 12.1184 107.673 11.9135 107.109 11.7086C106.46 11.4868 105.845 11.2346 105.264 10.9528C104.684 10.6709 104.18 10.3378 103.753 9.95351C103.326 9.56921 102.988 9.11246 102.741 8.58283C102.493 8.0536 102.369 7.41308 102.369 6.66136C102.369 5.10732 102.899 3.89434 103.958 3.02324C105.017 2.15215 106.477 1.71655 108.339 1.71655C109.415 1.71655 110.393 1.83183 111.272 2.06241C112.152 2.29299 112.797 2.54523 113.207 2.81822L112.413 4.8423C112.054 4.62052 111.52 4.40271 110.811 4.1889C110.102 3.9756 109.278 3.86869 108.339 3.86869C107.861 3.86869 107.417 3.9199 107.007 4.02241C106.597 4.12492 106.238 4.27864 105.931 4.48356C105.623 4.68858 105.38 4.94911 105.2 5.26502C105.021 5.58125 104.931 5.95277 104.931 6.37948C104.931 6.8579 105.025 7.25936 105.213 7.58366C105.401 7.90827 105.666 8.19455 106.007 8.44199C106.349 8.68973 106.746 8.91591 107.199 9.12084C107.651 9.32586 108.151 9.53078 108.698 9.73581C109.466 10.0432 110.171 10.3507 110.811 10.6581C111.452 10.9655 112.007 11.3331 112.477 11.7598C112.946 12.1869 113.309 12.695 113.565 13.2842C113.822 13.8735 113.95 14.5868 113.95 15.4236C113.95 16.9779 113.382 18.1737 112.246 19.0104C111.11 19.8474 109.509 20.2658 107.442 20.2658C106.742 20.2658 106.097 20.2185 105.508 20.1248C104.919 20.0308 104.393 19.9199 103.932 19.7918C103.471 19.6637 103.074 19.5272 102.741 19.3819C102.408 19.237 102.147 19.1129 101.959 19.0104L102.702 16.9607C103.095 17.1829 103.693 17.4307 104.496 17.7038C105.299 17.9772 106.28 18.1136 107.442 18.1136Z" fill="#003355"/>
<path d="M115.943 2.12649H118.428V19.8815H115.943V2.12649Z" fill="#003355"/>
<path d="M120.913 19.8815V2.12649H131.623V4.25298H123.398V9.60764H130.7V11.7086H123.398V19.8815H120.913Z" fill="#003355"/>
<path d="M16.4376 14.9751C16.2554 14.0329 15.6358 12.9644 15.0145 11.6847C13.362 8.2811 9.38834 2.15376 8.83937 1.45481C8.30177 0.7684 7.72707 0.434757 7.40177 0.434757C7.38817 0.434757 7.37452 0.435714 7.35975 0.436935C7.12944 0.460471 6.6167 0.87817 5.72851 2.24122C5.31889 2.86999 4.96315 3.52925 4.60183 4.1476L4.3891 4.51169L4.69772 4.20307C5.05591 3.83383 5.95566 3.20112 6.04712 3.12696C7.17989 2.20844 7.55603 2.59754 7.67129 2.6791C8.45967 3.23693 14.1193 12.7614 14.5234 14.0056C15.1857 16.0432 14.5395 17.1322 13.8259 17.8377C12.8917 18.7611 3.40966 19.2876 1.92333 17.5488C1.34493 16.8883 1.61687 15.6244 1.92305 14.9298C2.16744 14.375 2.37495 13.7997 2.64935 13.292L2.93072 12.7697C3.77858 11.1858 4.70216 9.71444 5.53127 8.62686L5.59088 8.54871C5.63429 8.49165 5.67886 8.43125 5.72482 8.36898C6.07047 7.90071 6.60414 7.31795 7.17187 7.31795C7.25815 7.31795 7.34544 7.33118 7.43129 7.35727C8.05459 7.54672 8.45065 8.25938 8.76889 8.8321L8.83971 8.95918C9.41205 9.97859 9.96676 11.1248 10.5355 12.4633C10.5584 12.5174 10.5822 12.5727 10.6066 12.6291L10.6125 12.6428C10.9906 13.5184 11.3866 14.6666 10.5484 15.3886C9.70074 16.1187 7.31206 15.9716 7.26982 15.9716C6.18894 15.9716 5.64093 15.7754 5.32307 15.132C4.88317 14.2405 5.36824 12.8464 5.60391 12.249C5.8763 11.5598 6.21418 10.8181 6.81267 10.3145C6.93725 10.2099 7.04484 10.1195 7.18924 10.1195C7.27499 10.1195 7.37232 10.1476 7.46333 10.1985C7.70288 10.3325 8.54599 11.3999 8.38005 12.7419C8.28932 13.4756 7.98185 13.9479 7.63402 14.2148C7.93087 13.7864 8.09528 13.2696 8.09528 12.7336C8.09528 12.0013 7.78948 11.304 7.25629 10.8206L7.18499 10.756L7.1138 10.8206C6.58055 11.3038 6.27475 12.0011 6.27475 12.7336C6.27475 13.4661 6.58055 14.1634 7.1138 14.6466L7.18333 14.7113C7.18371 14.7113 7.18434 14.7112 7.18473 14.7111L7.18499 14.7113L7.18537 14.711C7.20477 14.7079 7.24111 14.7014 7.29004 14.6895C7.45583 14.6492 8.87037 14.1605 8.8843 12.2968C8.89001 11.532 8.55479 10.1695 7.48192 9.17193L7.47204 9.16072L7.4594 9.14993C7.4493 9.14053 7.439 9.13107 7.428 9.12129C7.428 9.12129 7.38385 9.08235 7.37062 9.07135L7.34602 9.05143C7.3176 9.02869 7.30049 9.01573 7.29449 9.01164L7.2326 8.96988L7.17267 9.01403C7.13686 9.04022 7.09346 9.07434 7.07427 9.09165C5.53436 10.481 4.43364 12.3347 4.16343 13.669C4.01303 14.4124 4.11737 15.3177 4.46515 15.7976C4.80192 16.2623 5.46263 16.8169 6.17985 16.9003C6.65668 16.9564 7.29915 16.9886 7.94258 16.9886C9.02649 16.9886 10.275 16.798 10.8005 16.6398C11.363 16.4711 11.7814 15.8678 12.0105 15.3963C12.2929 14.8172 12.2857 13.8983 11.9908 13.1459C11.5167 11.9382 9.83295 8.67967 9.72829 8.4823C9.0915 7.2822 8.0529 5.79988 7.21401 5.79988C7.07556 5.79988 6.80774 5.77054 6.50441 5.96612C5.77801 6.43448 4.79071 7.50553 3.99927 8.61102C2.8279 10.2472 1.67753 12.0958 1.22167 12.9224C0.231895 14.7151 -0.628645 17.2676 0.623578 18.7298C1.31992 19.5421 2.39218 19.8003 3.43475 19.9711C4.22318 20.1002 6.19532 20.1648 8.08814 20.1609C10.0683 20.1569 11.9886 19.9854 12.3096 19.9711C13.4679 19.9193 15.066 19.6211 15.8421 18.2557C16.3815 17.3068 16.6726 16.1897 16.4376 14.9751Z" fill="url(#paint0_linear_259_465)"/>
<path d="M6.79791 11.0721C6.43804 11.5284 6.20887 12.124 6.2117 12.8385C6.21523 13.6236 6.58103 14.2779 7.15599 14.7113C7.72776 14.2779 8.10588 13.6362 8.09502 12.853C8.08763 12.2664 8.02777 11.7184 7.47579 11.0212C7.38788 10.9098 7.2342 10.7656 7.15443 10.6963C7.14554 10.6963 6.93899 10.8936 6.79791 11.0721Z" fill="#FFC200"/>
<defs>
<linearGradient id="paint0_linear_259_465" x1="1.06111e-08" y1="10.2979" x2="16.5197" y2="10.2979" gradientUnits="userSpaceOnUse">
<stop offset="0.0040197" stop-color="#D60021"/>
<stop offset="1" stop-color="#FF0002"/>
</linearGradient>
</defs>
</svg>
