<?xml version="1.0" encoding="UTF-8"?>
<!DOCTYPE svg PUBLIC "-//W3C//DTD SVG 1.1//EN" "http://www.w3.org/Graphics/SVG/1.1/DTD/svg11.dtd">
<!-- Creator: CorelDRAW X7 -->
<svg xmlns="http://www.w3.org/2000/svg" xml:space="preserve" width="288.018mm" height="84.703mm" version="1.1" style="shape-rendering:geometricPrecision; text-rendering:geometricPrecision; image-rendering:optimizeQuality; fill-rule:evenodd; clip-rule:evenodd"
viewBox="0 0 28802 8470"
 xmlns:xlink="http://www.w3.org/1999/xlink">
 <defs>
  <style type="text/css">
   <![CDATA[
    .fil0 {fill:none}
    .fil3 {fill:black}
    .fil2 {fill:#DB0011}
    .fil1 {fill:white}
   ]]>
  </style>
 </defs>
 <g id="Layer_x0020_1">
  <metadata id="CorelCorpID_0Corel-Layer"/>
  <g id="_2361211504480">
   <rect class="fil0" width="28802" height="8470"/>
   <g>
    <g>
     <rect class="fil1" x="3494" y="5919" width="1751" height="1751"/>
     <polygon class="fil2" points="6121,6795 5245,5919 5245,7670 "/>
     <polygon class="fil2" points="4370,6795 5245,5919 3494,5919 "/>
     <polygon class="fil2" points="2618,6795 3494,7670 3494,5919 "/>
     <polygon class="fil2" points="4370,6795 3494,7670 5245,7670 "/>
     <polygon class="fil3" points="6890,6849 6572,6849 6572,7163 6413,7163 6413,6429 6572,6429 6572,6729 6890,6729 6890,6429 7049,6429 7049,7162 6890,7162 6890,6849 "/>
     <path class="fil3" d="M7430 7175c-158,0 -288,-63 -291,-238l159 0c2,78 48,125 135,125 65,0 138,-33 138,-106 0,-57 -49,-75 -132,-99l-52 -15c-116,-33 -231,-78 -231,-210 0,-163 153,-218 291,-218 139,0 266,49 267,212l-159 0c-6,-67 -45,-105 -120,-105 -58,0 -117,31 -117,96 0,54 48,70 152,103l61 19c126,39 205,83 205,205 0,168 -162,232 -306,232l0 -1z"/>
     <path class="fil3" d="M7825 6429l255 0c80,0 112,2 144,9 89,20 156,78 156,177 0,99 -60,143 -147,165 99,18 173,69 173,178 0,166 -164,205 -293,205l-288 0 0 -734 0 0zm256 305c70,0 141,-14 141,-99 0,-76 -67,-96 -131,-96l-111 0 0 195 101 0 0 0zm15 318c74,0 147,-17 147,-106 0,-89 -63,-108 -138,-108l-126 0 0 214 117 0z"/>
     <path class="fil3" d="M8821 7175c-236,0 -343,-151 -343,-374 0,-223 118,-386 351,-386 146,0 288,65 292,231l-164 0c-8,-73 -57,-111 -128,-111 -143,0 -187,154 -187,271 0,118 44,253 182,253 72,0 125,-38 136,-112l165 0c-17,165 -151,228 -304,228l0 0z"/>
     <polygon class="fil3" points="10120,6484 9844,7163 9778,7163 9501,6484 9501,7163 9440,7163 9440,6429 9548,6429 9813,7084 10076,6429 10184,6429 10184,7163 10120,7163 "/>
     <path class="fil3" d="M10666 7080c-43,61 -91,87 -166,87 -137,0 -183,-75 -183,-203l0 -313 62 0 0 289c0,95 22,176 131,176 115,0 154,-96 154,-197l0 -268 62 0 0 359c0,51 1,103 3,153l-61 0 -2 -83 0 0z"/>
     <path class="fil3" d="M10998 7167c-74,0 -108,-36 -108,-110l0 -361 -102 0 0 -46 102 0 0 -105 62 -28 0 133 114 0 0 46 -114 0 0 333c0,58 8,86 72,86 15,-1 31,-3 46,-7l0 53c-24,3 -47,5 -72,5l0 1z"/>
     <path class="fil3" d="M11483 7080c-43,61 -92,87 -167,87 -137,0 -182,-75 -182,-203l0 -313 61 0 0 289c0,95 23,176 131,176 116,0 155,-96 155,-197l0 -268 61 0 0 359c0,51 1,103 3,153l-60 0 -2 -83 0 0z"/>
     <path class="fil3" d="M11978 7089c-42,65 -95,85 -171,85 -94,0 -179,-47 -179,-150 0,-164 191,-169 317,-169l26 0c1,-12 1,-23 1,-35 0,-87 -34,-132 -125,-132 -66,0 -110,21 -119,94l-60 0c1,-102 89,-141 179,-141 127,0 186,53 186,180l0 152c0,63 3,127 10,190l-57 0c-2,-25 -5,-50 -8,-74l0 0zm-55 -190c-86,0 -232,5 -232,123 0,71 62,108 127,108 146,0 155,-116 155,-229 -17,-1 -33,-2 -50,-2l0 0z"/>
     <polygon class="fil3" points="12153,6429 12215,6429 12215,7163 12153,7163 "/>
     <polygon class="fil3" points="12628,6754 12965,6754 12965,6808 12628,6808 12628,7163 12562,7163 12562,6429 12979,6429 12979,6484 12628,6484 "/>
     <path class="fil3" d="M13394 7080c-43,61 -92,87 -167,87 -137,0 -182,-75 -182,-203l0 -313 62 0 0 289c0,95 22,176 130,176 116,0 155,-96 155,-197l0 -268 62 0 0 359c0,51 0,103 3,153l-61 0 -2 -83 0 0z"/>
     <path class="fil3" d="M13922 6874c0,-96 -11,-177 -129,-177 -117,0 -156,91 -156,193l0 273 -62 0 0 -367c0,-49 -3,-97 -3,-145l61 0 4 85c41,-62 92,-90 167,-90 139,0 180,77 180,204l0 313 -62 0 0 -290 0 1z"/>
     <path class="fil3" d="M14461 7078c-43,64 -88,93 -167,93 -154,0 -222,-131 -222,-270 0,-139 70,-260 217,-260 81,0 133,30 173,101l0 -313 62 0 0 581c0,50 0,102 4,153l-61 0 -6 -85 0 0zm-167 -388c-120,0 -156,116 -156,216 0,107 43,215 167,215 124,0 156,-111 156,-213 0,-102 -45,-218 -167,-218l0 0z"/>
     <path class="fil3" d="M1471 7171l-203 0 0 -739 203 0c73,0 102,2 129,10 80,23 135,88 135,173 0,92 -51,147 -137,169 102,14 168,75 168,181 0,170 -157,206 -295,206zm40 -680l-176 0 0 270 157 0c94,0 172,-36 172,-141 0,-92 -70,-129 -153,-129zm-7 323l-170 0 0 297 131 0c108,0 230,-7 230,-147 0,-122 -89,-150 -191,-150l0 0z"/>
     <polygon class="fil3" points="1963,7365 2044,7167 1828,6654 1902,6654 2075,7087 2247,6654 2309,6654 2026,7365 1962,7365 "/>
    </g>
    <g>
     <g>
      <path class="fil3" d="M22793 4209c-608,0 -1054,-267 -1114,-906l313 0c14,474 391,653 814,653 401,0 865,-175 865,-644 0,-359 -289,-524 -717,-662l-244 -79c-539,-170 -934,-368 -934,-888 0,-621 547,-883 1099,-883 506,0 1031,189 1040,777l-308 0c-42,-405 -350,-529 -718,-529 -368,0 -810,171 -810,612 0,327 244,493 759,658l276 88c539,170 847,349 861,856 0,667 -589,947 -1183,947l1 0z"/>
      <polygon class="fil3" points="24807,841 25106,841 25106,4168 24807,4168 "/>
      <polygon class="fil3" points="26410,2314 27937,2314 27937,2562 26410,2562 26410,4168 26111,4168 26111,841 28002,841 28002,1090 26410,1090 "/>
     </g>
     <path class="fil3" d="M2650 3779c-19,-148 -28,-290 -42,-433 -41,-409 -120,-547 -552,-547l-538 0 0 1403 -718 0 0 -3327 1275 0c276,0 538,5 796,111 326,138 533,368 533,731 0,474 -308,718 -750,806l0 4c378,23 548,157 626,507 23,96 33,211 51,331 37,281 41,579 161,837l-755 0c-46,-133 -69,-280 -87,-423l0 0zm-672 -2397l-460 0 0 929 409 0c345,0 773,-28 773,-474 0,-405 -400,-455 -722,-455l0 0z"/>
     <path class="fil3" d="M4720 3852c272,0 428,-133 465,-405l653 0c-83,603 -584,806 -1127,806 -750,0 -1178,-424 -1178,-1174 0,-750 405,-1261 1201,-1261 451,0 847,184 1026,617 97,226 101,460 101,736l-1675 0c-4,350 143,681 534,681l0 0zm9 -1638c-331,0 -529,240 -529,571l1012 0c0,-350 -161,-571 -483,-571l0 0z"/>
     <path class="fil3" d="M7851 3894c-207,244 -396,354 -723,354 -708,0 -1026,-557 -1026,-1201 0,-584 286,-1219 1003,-1219 323,0 552,96 750,350l0 -1302 672 0 0 2705c0,203 0,414 19,621l-677 0 -18 -308 0 0zm-552 -1643c-414,0 -511,428 -511,769 0,368 97,796 548,796 414,0 534,-447 534,-782 0,-364 -143,-783 -571,-783l0 0z"/>
     <polygon class="fil3" points="11063,2780 9622,2780 9622,4202 8900,4202 8900,875 9622,875 9622,2237 11063,2237 11063,875 11785,875 11785,4202 11063,4202 11063,2780 "/>
     <path class="fil3" d="M13221 3852c271,0 428,-133 464,-405l654 0c-83,603 -585,806 -1128,806 -749,0 -1177,-424 -1177,-1174 0,-750 404,-1261 1200,-1261 451,0 847,184 1026,617 97,226 101,460 101,736l-1674 0c-5,350 142,681 534,681l0 0zm9 -1638c-331,0 -529,240 -529,571l1012 0c0,-350 -161,-571 -483,-571z"/>
     <polygon class="fil3" points="17188,4168 16037,3018 17186,1866 16451,1866 15746,2573 15040,1866 14305,1866 15455,3018 14303,4168 15038,4168 15746,3461 16454,4168 "/>
    </g>
    <g>
     <path class="fil2" d="M20112 2162l853 852 -852 854 -2054 2 -854 -852 852 -854 2055 -2 0 0zm123 -298l-2301 2 -1150 1152 1152 1150 2301 -2 1150 -1152 -1152 -1150 0 0z"/>
    </g>
   </g>
  </g>
 </g>
</svg>
