<svg xmlns="http://www.w3.org/2000/svg" width="178.859" height="75.879" viewBox="0 0 178.859 75.879">
  <g id="Group_13489" data-name="Group 13489" transform="translate(-168.943 -37)">
    <g id="Group_12794" data-name="Group 12794" transform="translate(-25.34 1)">
      <g id="Group_13460" data-name="Group 13460">
        <path id="Path_27529" data-name="Path 27529" d="M0,0H178.859V75.879H0Z" transform="translate(194.283 36)" fill="#fff" opacity="0"/>
        <g id="Group_13459" data-name="Group 13459" transform="translate(4018.283 23051.127)">
          <path id="Path_28272" data-name="Path 28272" d="M443.183,13.962H444.3v3.427h.921V13.962h1.121v-.8h-3.162Z" transform="translate(-4106.075 -23011.916)" fill="#6d6f72"/>
          <path id="Path_28273" data-name="Path 28273" d="M456.6,13.163l-.023.07c-.426,1.268-.714,2.172-.86,2.7-.177-.707-.505-1.847-.783-2.7l-.023-.071h-1.241V17.39h.862V15.8c0-.353,0-.767-.013-1.15.233.9.555,2.045.736,2.669l.021.075h.777l.023-.071c.285-.875.615-1.948.842-2.768-.005.357-.008.765-.008,1.163V17.39h.893V13.163Z" transform="translate(-4112.939 -23011.916)" fill="#6d6f72"/>
          <path id="Path_28274" data-name="Path 28274" d="M442.731.993A6.609,6.609,0,1,1,436.122,7.6,6.617,6.617,0,0,1,442.731.993Zm0,12.29A5.681,5.681,0,1,0,437.05,7.6,5.687,5.687,0,0,0,442.731,13.283Z" transform="translate(-4101.745 -23004.24)" fill="#6d6f72"/>
          <path id="Path_28275" data-name="Path 28275" d="M317.336,33.054a6.064,6.064,0,0,1,2.356.357,8.478,8.478,0,0,1,1.426.79q.372.218.6.326a1.051,1.051,0,0,0,.449.108.471.471,0,0,0,.45-.341,4.486,4.486,0,0,0,.233-1.023h.713q-.031.528-.078,1.256t-.062,1.922q-.016,1.194-.016,3.147H322.7a8.951,8.951,0,0,0-.651-2.853,5.5,5.5,0,0,0-1.628-2.232,4.318,4.318,0,0,0-2.806-.868,3.834,3.834,0,0,0-2.713.992,3.387,3.387,0,0,0-1.07,2.6,3.775,3.775,0,0,0,.713,2.341,7.165,7.165,0,0,0,1.907,1.7q1.193.76,2.589,1.628a32.107,32.107,0,0,1,2.868,1.969,8.251,8.251,0,0,1,1.984,2.155,5.322,5.322,0,0,1,.729,2.853,5.654,5.654,0,0,1-.9,3.286,5.539,5.539,0,0,1-2.387,1.953,8.116,8.116,0,0,1-3.286.651,7.409,7.409,0,0,1-2.6-.372,11.1,11.1,0,0,1-1.643-.776,2.245,2.245,0,0,0-1.054-.434.471.471,0,0,0-.45.341,4.476,4.476,0,0,0-.233,1.023h-.713q.062-.651.077-1.535t.031-2.309q.015-1.426.016-3.6h.713a12.826,12.826,0,0,0,.7,3.472,5.746,5.746,0,0,0,1.767,2.589,4.865,4.865,0,0,0,3.178.977,4.607,4.607,0,0,0,1.938-.419,3.51,3.51,0,0,0,1.5-1.334,4.312,4.312,0,0,0,.589-2.372,4.027,4.027,0,0,0-.6-2.217,6.955,6.955,0,0,0-1.69-1.767,28.11,28.11,0,0,0-2.542-1.69q-1.458-.9-2.729-1.829a7.688,7.688,0,0,1-2.031-2.155,5.506,5.506,0,0,1-.76-2.961,5.215,5.215,0,0,1,.822-3.023,4.94,4.94,0,0,1,2.155-1.767,7.143,7.143,0,0,1,2.853-.573" transform="translate(-4019.788 -23024.934)" fill="#89bb2a"/>
          <path id="Path_28276" data-name="Path 28276" d="M365.835,34.041v.62a5.282,5.282,0,0,0-1.6.233,1.161,1.161,0,0,0-.729.744,5.62,5.62,0,0,0-.186,1.69V52.706a5.643,5.643,0,0,0,.186,1.674,1.117,1.117,0,0,0,.729.744,6.392,6.392,0,0,0,1.6.248v.62q-.714-.062-1.783-.078T361.9,55.9q-1.21,0-2.264.016t-1.706.078v-.62a6.391,6.391,0,0,0,1.6-.248,1.118,1.118,0,0,0,.729-.744,5.644,5.644,0,0,0,.186-1.674V37.327a5.621,5.621,0,0,0-.186-1.69,1.161,1.161,0,0,0-.729-.744,5.28,5.28,0,0,0-1.6-.233v-.62q.651.032,1.706.062t2.264.031q1.084,0,2.155-.031t1.783-.062" transform="translate(-4050.273 -23025.58)" fill="#89bb2a"/>
          <path id="Path_28277" data-name="Path 28277" d="M403.824,34.041q-.124,1.178-.17,2.279t-.047,1.69q0,.744.031,1.4t.062,1.148h-.713a19.4,19.4,0,0,0-.589-3.426,3,3,0,0,0-1.3-1.814,5.768,5.768,0,0,0-2.884-.558h-1.953a5.663,5.663,0,0,0-1.6.17,1.076,1.076,0,0,0-.729.713,5.632,5.632,0,0,0-.186,1.69V52.706a4.584,4.584,0,0,0,.233,1.674,1.284,1.284,0,0,0,.914.744,9.817,9.817,0,0,0,1.985.248v.62q-.807-.062-2.047-.077t-2.511-.016q-1.21,0-2.264.016t-1.7.077v-.62a6.38,6.38,0,0,0,1.6-.248,1.117,1.117,0,0,0,.729-.744,5.631,5.631,0,0,0,.186-1.674V37.327a5.612,5.612,0,0,0-.186-1.69,1.161,1.161,0,0,0-.729-.744,5.282,5.282,0,0,0-1.6-.233v-.62q1.147.031,2.418.047l2.511.031q1.24.016,2.31.016h1.752q1.426,0,3.24-.016t3.24-.077m-4.806,11.534h-6.2v-.62h6.2Zm.589-4.713q-.124,1.767-.108,2.7t.015,1.7q0,.775.031,1.706t.155,2.7h-.713q-.124-.992-.294-1.938a2.959,2.959,0,0,0-.745-1.55,2.589,2.589,0,0,0-1.937-.6v-.62a2.524,2.524,0,0,0,1.565-.418,2.409,2.409,0,0,0,.791-1.07,5.99,5.99,0,0,0,.341-1.349q.093-.7.186-1.255Z" transform="translate(-4070.187 -23025.58)" fill="#89bb2a"/>
          <path id="Path_28278" data-name="Path 28278" d="M5.642,55.572a6.526,6.526,0,0,1-3.035-.663A4.54,4.54,0,0,1,.663,53.05,5.636,5.636,0,0,1,0,50.271a5.08,5.08,0,0,1,.876-3.077A6.546,6.546,0,0,1,3.12,45.27a17.917,17.917,0,0,1,2.885-1.218q1.516-.491,2.885-.94a8.9,8.9,0,0,0,2.244-1.047,1.834,1.834,0,0,0,.876-1.582v-2.65a5.64,5.64,0,0,0-.534-2.736,2.672,2.672,0,0,0-1.432-1.261,5.947,5.947,0,0,0-2.009-.321,9.635,9.635,0,0,0-2.287.3A3.408,3.408,0,0,0,3.8,35.054a2.564,2.564,0,0,1,2.009,2.608A2.167,2.167,0,0,1,5.13,39.35a2.512,2.512,0,0,1-1.753.62,2.1,2.1,0,0,1-1.817-.791,2.935,2.935,0,0,1-.577-1.774,2.757,2.757,0,0,1,.556-1.8,6.9,6.9,0,0,1,1.411-1.282,9.419,9.419,0,0,1,2.543-1.176,11.732,11.732,0,0,1,3.527-.492,9.685,9.685,0,0,1,2.992.406,5.358,5.358,0,0,1,2.052,1.176,4.81,4.81,0,0,1,1.453,2.5,15.825,15.825,0,0,1,.342,3.527V52.152a2.811,2.811,0,0,0,.321,1.539,1.128,1.128,0,0,0,1,.47,1.977,1.977,0,0,0,.9-.214,6.328,6.328,0,0,0,1.026-.684l.47.727a14.136,14.136,0,0,1-1.71,1.133,4.515,4.515,0,0,1-2.18.449,4.386,4.386,0,0,1-2.052-.427,2.745,2.745,0,0,1-1.218-1.261,4.822,4.822,0,0,1-.406-2.116,7.966,7.966,0,0,1-2.757,2.864,7.006,7.006,0,0,1-3.612.94m1.539-1.71A4.647,4.647,0,0,0,9.81,53.05a7.555,7.555,0,0,0,2.2-2.436V42.235a3.927,3.927,0,0,1-1.5,1.218q-.984.492-2.137.983a15.425,15.425,0,0,0-2.2,1.154,5.576,5.576,0,0,0-1.731,1.731A5.08,5.08,0,0,0,3.762,50.1a3.941,3.941,0,0,0,.919,2.736,3.186,3.186,0,0,0,2.5,1.026" transform="translate(-3816 -23024.678)" fill="#264796"/>
          <path id="Path_28279" data-name="Path 28279" d="M68.961,1.11V30.647a3.128,3.128,0,0,0,.748,2.436,3.843,3.843,0,0,0,2.5.641v.9q-.727-.042-2.2-.107t-2.971-.064q-1.454,0-2.949.064t-2.223.107v-.9a3.846,3.846,0,0,0,2.5-.641,3.131,3.131,0,0,0,.748-2.436V6.24A4.781,4.781,0,0,0,64.43,3.4a3.028,3.028,0,0,0-2.565-.919v-.9q1.368.129,2.65.129a18.049,18.049,0,0,0,2.372-.15,12.01,12.01,0,0,0,2.073-.449" transform="translate(-3856.492 -23004.025)" fill="#264796"/>
          <path id="Path_28280" data-name="Path 28280" d="M100.018,13.854v7.139h6.326v.855h-6.326V38.39a4.241,4.241,0,0,0,.727,2.821,2.556,2.556,0,0,0,2.009.813,2.9,2.9,0,0,0,2.223-1.048A8.963,8.963,0,0,0,106.6,37.45l.855.214a9.735,9.735,0,0,1-1.688,4.189,4.493,4.493,0,0,1-3.869,1.71,6.728,6.728,0,0,1-2.393-.363,5.072,5.072,0,0,1-1.668-1.047,5.309,5.309,0,0,1-1.3-2.351,14.622,14.622,0,0,1-.363-3.633V21.848h-4.1v-.855h4.1v-6.54q1.069-.042,2.052-.171a8.287,8.287,0,0,0,1.8-.427" transform="translate(-3876.26 -23012.367)" fill="#264796"/>
          <path id="Path_28281" data-name="Path 28281" d="M146.973,13.676V32.185a3.128,3.128,0,0,0,.748,2.437,3.845,3.845,0,0,0,2.5.641v.9q-.727-.042-2.2-.107t-2.971-.064q-1.453,0-2.949.064t-2.222.107v-.9a3.848,3.848,0,0,0,2.5-.641,3.131,3.131,0,0,0,.748-2.437V18.806a4.774,4.774,0,0,0-.684-2.843,3.025,3.025,0,0,0-2.564-.919v-.9q1.367.128,2.65.128a18.111,18.111,0,0,0,2.373-.15,12.023,12.023,0,0,0,2.073-.449M144.75,3.46a2.631,2.631,0,0,1,1.924.812,2.684,2.684,0,0,1,0,3.847,2.683,2.683,0,0,1-3.847,0,2.683,2.683,0,0,1,0-3.847,2.628,2.628,0,0,1,1.923-.812" transform="translate(-3907.553 -23005.564)" fill="#264796"/>
          <path id="Path_28282" data-name="Path 28282" d="M190.6,34.393v.855a2.556,2.556,0,0,0-1.5.727,5.986,5.986,0,0,0-1.282,2.266l-7.01,18.38h-.727l-7.865-18.936a4.108,4.108,0,0,0-1.347-2.03,2.468,2.468,0,0,0-1.132-.363v-.9q.855.043,1.774.107t1.988.064q1.325,0,2.8-.043t2.757-.128v.9a10.869,10.869,0,0,0-1.9.149,1.26,1.26,0,0,0-1.069.834,3.957,3.957,0,0,0,.406,2.351l5.343,13.209-.256.214,4.873-12.781a4.85,4.85,0,0,0,.449-2.244,1.626,1.626,0,0,0-.855-1.261,5.38,5.38,0,0,0-2.287-.513v-.855q.77.043,1.325.064l1.09.043q.535.022,1.176.021.983,0,1.774-.043t1.475-.085" transform="translate(-3927.103 -23025.811)" fill="#264796"/>
          <path id="Path_28283" data-name="Path 28283" d="M238.416,55.572a6.527,6.527,0,0,1-3.035-.663,4.542,4.542,0,0,1-1.945-1.859,5.64,5.64,0,0,1-.663-2.779,5.078,5.078,0,0,1,.876-3.077,6.542,6.542,0,0,1,2.244-1.924,17.921,17.921,0,0,1,2.886-1.218q1.516-.491,2.885-.94a8.9,8.9,0,0,0,2.244-1.047,1.833,1.833,0,0,0,.876-1.582v-2.65a5.641,5.641,0,0,0-.534-2.736,2.673,2.673,0,0,0-1.432-1.261,5.95,5.95,0,0,0-2.009-.321,9.638,9.638,0,0,0-2.287.3,3.406,3.406,0,0,0-1.944,1.24,2.564,2.564,0,0,1,2.009,2.608,2.167,2.167,0,0,1-.684,1.689,2.511,2.511,0,0,1-1.753.62,2.1,2.1,0,0,1-1.817-.791,2.937,2.937,0,0,1-.577-1.774,2.759,2.759,0,0,1,.556-1.8,6.888,6.888,0,0,1,1.411-1.282,9.416,9.416,0,0,1,2.543-1.176,11.734,11.734,0,0,1,3.527-.492,9.686,9.686,0,0,1,2.992.406,5.356,5.356,0,0,1,2.052,1.176,4.81,4.81,0,0,1,1.453,2.5,15.823,15.823,0,0,1,.342,3.527V52.152a2.811,2.811,0,0,0,.321,1.539,1.128,1.128,0,0,0,1,.47,1.976,1.976,0,0,0,.9-.214,6.326,6.326,0,0,0,1.026-.684l.47.727a14.188,14.188,0,0,1-1.71,1.133,4.517,4.517,0,0,1-2.18.449,4.386,4.386,0,0,1-2.052-.427,2.745,2.745,0,0,1-1.219-1.261,4.827,4.827,0,0,1-.406-2.116,7.968,7.968,0,0,1-2.757,2.864,7.007,7.007,0,0,1-3.612.94m1.539-1.71a4.647,4.647,0,0,0,2.629-.812,7.551,7.551,0,0,0,2.2-2.436V42.235a3.927,3.927,0,0,1-1.5,1.218q-.984.492-2.137.983a15.444,15.444,0,0,0-2.2,1.154,5.579,5.579,0,0,0-1.731,1.731,5.08,5.08,0,0,0-.684,2.778,3.943,3.943,0,0,0,.919,2.736,3.186,3.186,0,0,0,2.5,1.026" transform="translate(-3968.356 -23024.678)" fill="#264796"/>
          <path id="Path_28284" data-name="Path 28284" d="M34.555,121.746H32.827l-.009-.726h1.569a1.639,1.639,0,0,0,.679-.131,1.034,1.034,0,0,0,.452-.377,1.045,1.045,0,0,0,.162-.588,1.169,1.169,0,0,0-.143-.611.828.828,0,0,0-.436-.347,2.135,2.135,0,0,0-.742-.11h-1.33v6.08h-.9v-6.82h2.235a3.782,3.782,0,0,1,.937.105,1.9,1.9,0,0,1,.7.328,1.422,1.422,0,0,1,.438.564,2.039,2.039,0,0,1,.15.82,1.394,1.394,0,0,1-.215.761,1.656,1.656,0,0,1-.6.555,2.369,2.369,0,0,1-.892.276Zm-.042,3.189H32.471l.51-.736h1.532a1.634,1.634,0,0,0,.733-.15,1.068,1.068,0,0,0,.461-.424,1.267,1.267,0,0,0,.159-.649,1.467,1.467,0,0,0-.136-.656.934.934,0,0,0-.426-.426,1.633,1.633,0,0,0-.749-.15H33.267l.009-.726h1.761l.192.262a1.692,1.692,0,0,1,.834.278,1.566,1.566,0,0,1,.522.6,1.8,1.8,0,0,1,.18.806,1.965,1.965,0,0,1-.278,1.075,1.757,1.757,0,0,1-.785.665,2.884,2.884,0,0,1-1.189.227" transform="translate(-3837.026 -23080.609)" fill="#6d6f72"/>
          <path id="Path_28285" data-name="Path 28285" d="M50.924,123.187l1.316,3.934.225.913-.623.319-1.864-5.167Zm1.035,4.543,1.41-4.543H54.3l-2.033,5.85a3.621,3.621,0,0,1-.185.405,2.024,2.024,0,0,1-.293.415,1.421,1.421,0,0,1-.428.321,1.336,1.336,0,0,1-.6.124,1.573,1.573,0,0,1-.262-.028q-.16-.028-.225-.047l0-.7.12.012c.055,0,.093.007.115.007a1.426,1.426,0,0,0,.5-.077.8.8,0,0,0,.349-.258,1.594,1.594,0,0,0,.246-.494Z" transform="translate(-3848.712 -23083.93)" fill="#6d6f72"/>
          <path id="Path_28286" data-name="Path 28286" d="M78.007,124.936h-.9v-6.82h.9Zm3.382-6.079H77.824v-.74h3.564Zm-.431,2.927H77.824v-.736h3.133Zm.478,3.152H77.824V124.2h3.611Z" transform="translate(-3866.466 -23080.609)" fill="#6d6f72"/>
          <path id="Path_28287" data-name="Path 28287" d="M93.723,121.749v-.1a3.67,3.67,0,0,1,.143-1.056,2.485,2.485,0,0,1,.408-.817,1.843,1.843,0,0,1,.632-.527,1.808,1.808,0,0,1,.822-.185,1.964,1.964,0,0,1,.836.167,1.658,1.658,0,0,1,.609.482,2.423,2.423,0,0,1,.4.761,4.826,4.826,0,0,1,.2,1.007v.431a4.531,4.531,0,0,1-.2,1,2.434,2.434,0,0,1-.4.759,1.671,1.671,0,0,1-.611.48,2,2,0,0,1-.843.166,1.727,1.727,0,0,1-.813-.192,1.89,1.89,0,0,1-.632-.539,2.551,2.551,0,0,1-.408-.817,3.517,3.517,0,0,1-.143-1.023m.871-.1v.1a3.138,3.138,0,0,0,.077.712,1.828,1.828,0,0,0,.241.586,1.193,1.193,0,0,0,.417.4,1.208,1.208,0,0,0,.6.143,1.273,1.273,0,0,0,.71-.182,1.375,1.375,0,0,0,.447-.483,2.8,2.8,0,0,0,.262-.651V121.14a2.687,2.687,0,0,0-.162-.5,1.658,1.658,0,0,0-.272-.431,1.209,1.209,0,0,0-.408-.3,1.337,1.337,0,0,0-.569-.113,1.2,1.2,0,0,0-.611.148,1.216,1.216,0,0,0-.419.4,1.854,1.854,0,0,0-.241.59,3.176,3.176,0,0,0-.077.714m2.539,1.593v-6.211H98v7.195h-.8Z" transform="translate(-3877.344 -23079.9)" fill="#6d6f72"/>
          <path id="Path_28288" data-name="Path 28288" d="M113.876,128.171a2.452,2.452,0,0,1-.958-.18,2.111,2.111,0,0,1-.735-.508,2.252,2.252,0,0,1-.471-.778,2.854,2.854,0,0,1-.164-.984v-.2a3.11,3.11,0,0,1,.183-1.1,2.464,2.464,0,0,1,.5-.822,2.124,2.124,0,0,1,.712-.511,2.047,2.047,0,0,1,.824-.173,2.181,2.181,0,0,1,.939.187,1.718,1.718,0,0,1,.648.522,2.269,2.269,0,0,1,.374.787,3.77,3.77,0,0,1,.122.986v.389h-3.784v-.707h2.918v-.066a2.207,2.207,0,0,0-.138-.655,1.2,1.2,0,0,0-.377-.525,1.1,1.1,0,0,0-.7-.206,1.2,1.2,0,0,0-.543.124,1.18,1.18,0,0,0-.427.368,1.844,1.844,0,0,0-.276.595,3.028,3.028,0,0,0-.1.81v.2a2.221,2.221,0,0,0,.1.677,1.678,1.678,0,0,0,.3.555,1.387,1.387,0,0,0,.473.375,1.436,1.436,0,0,0,.635.135,1.513,1.513,0,0,0,.778-.187,1.923,1.923,0,0,0,.557-.5l.525.417a2.415,2.415,0,0,1-.417.473,1.992,1.992,0,0,1-.62.366,2.434,2.434,0,0,1-.869.141" transform="translate(-3889.011 -23083.75)" fill="#6d6f72"/>
          <rect id="Rectangle_3760" data-name="Rectangle 3760" width="0.871" height="7.194" transform="translate(-3771.239 -22962.869)" fill="#6d6f72"/>
          <path id="Path_28289" data-name="Path 28289" d="M138.333,123.187l1.11,4.215.08.853h-.585l-1.471-5.068Zm.876,4.168,1.3-4.168h.571l-.113.829-1.326,4.239h-.557Zm2-4.168,1.274,4.1.145.97h-.552l-1.363-4.248-.112-.82Zm1.119,4.183,1.059-4.183h.862l-1.471,5.068H142.2Z" transform="translate(-3905.976 -23083.93)" fill="#6d6f72"/>
          <path id="Path_28290" data-name="Path 28290" d="M163.193,128.171a2.453,2.453,0,0,1-.958-.18,2.113,2.113,0,0,1-.736-.508,2.257,2.257,0,0,1-.471-.778,2.854,2.854,0,0,1-.164-.984v-.2a3.118,3.118,0,0,1,.182-1.1,2.465,2.465,0,0,1,.5-.822,2.123,2.123,0,0,1,.712-.511,2.049,2.049,0,0,1,.825-.173,2.18,2.18,0,0,1,.939.187,1.722,1.722,0,0,1,.649.522,2.268,2.268,0,0,1,.374.787,3.785,3.785,0,0,1,.122.986v.389H161.38v-.707H164.3v-.066a2.207,2.207,0,0,0-.138-.655,1.2,1.2,0,0,0-.377-.525,1.1,1.1,0,0,0-.7-.206,1.2,1.2,0,0,0-.543.124,1.176,1.176,0,0,0-.426.368,1.838,1.838,0,0,0-.276.595,3.013,3.013,0,0,0-.1.81v.2a2.211,2.211,0,0,0,.1.677,1.678,1.678,0,0,0,.3.555,1.39,1.39,0,0,0,.473.375,1.436,1.436,0,0,0,.635.135,1.511,1.511,0,0,0,.777-.187,1.919,1.919,0,0,0,.557-.5l.525.417a2.425,2.425,0,0,1-.417.473,1.99,1.99,0,0,1-.621.366,2.432,2.432,0,0,1-.869.141" transform="translate(-3921.29 -23083.75)" fill="#6d6f72"/>
          <path id="Path_28291" data-name="Path 28291" d="M178.691,118.346a.519.519,0,0,1,.129-.356.485.485,0,0,1,.382-.145.492.492,0,0,1,.381.145.507.507,0,0,1,.134.356.486.486,0,0,1-.134.344.5.5,0,0,1-.381.143.489.489,0,0,1-.382-.143.5.5,0,0,1-.129-.344m.937,6.412h-.871V119.69h.871Z" transform="translate(-3932.958 -23080.432)" fill="#6d6f72"/>
          <path id="Path_28292" data-name="Path 28292" d="M190.654,126.733a.763.763,0,0,0-.082-.349.753.753,0,0,0-.333-.295,2.832,2.832,0,0,0-.752-.232,5.791,5.791,0,0,1-.761-.211,2.255,2.255,0,0,1-.576-.3,1.229,1.229,0,0,1-.363-.408,1.136,1.136,0,0,1-.126-.548,1.248,1.248,0,0,1,.134-.567,1.47,1.47,0,0,1,.379-.473,1.812,1.812,0,0,1,.592-.323,2.4,2.4,0,0,1,.772-.117,2.309,2.309,0,0,1,1.04.215,1.626,1.626,0,0,1,.66.574,1.442,1.442,0,0,1,.229.794H190.6a.765.765,0,0,0-.124-.409.961.961,0,0,0-.361-.33,1.177,1.177,0,0,0-.579-.131,1.322,1.322,0,0,0-.583.11.751.751,0,0,0-.323.279.685.685,0,0,0-.1.356.607.607,0,0,0,.049.251.517.517,0,0,0,.176.2,1.414,1.414,0,0,0,.356.171,5.571,5.571,0,0,0,.585.159,4.736,4.736,0,0,1,1.026.337,1.507,1.507,0,0,1,.6.482,1.191,1.191,0,0,1,.2.693,1.341,1.341,0,0,1-.139.609,1.358,1.358,0,0,1-.4.475,1.935,1.935,0,0,1-.618.309,2.724,2.724,0,0,1-.8.11,2.452,2.452,0,0,1-1.134-.239,1.754,1.754,0,0,1-.7-.618,1.48,1.48,0,0,1-.239-.8h.871a.886.886,0,0,0,.206.564,1.026,1.026,0,0,0,.459.3,1.769,1.769,0,0,0,.539.086,1.656,1.656,0,0,0,.6-.094.831.831,0,0,0,.368-.258.6.6,0,0,0,.126-.374" transform="translate(-3938.716 -23083.75)" fill="#6d6f72"/>
          <path id="Path_28293" data-name="Path 28293" d="M207.151,126.733a.763.763,0,0,0-.082-.349.753.753,0,0,0-.333-.295,2.831,2.831,0,0,0-.752-.232,5.791,5.791,0,0,1-.761-.211,2.254,2.254,0,0,1-.576-.3,1.225,1.225,0,0,1-.363-.408,1.136,1.136,0,0,1-.126-.548,1.252,1.252,0,0,1,.133-.567,1.47,1.47,0,0,1,.379-.473,1.816,1.816,0,0,1,.592-.323,2.4,2.4,0,0,1,.773-.117,2.309,2.309,0,0,1,1.04.215,1.627,1.627,0,0,1,.661.574,1.442,1.442,0,0,1,.229.794H207.1a.765.765,0,0,0-.124-.409.963.963,0,0,0-.361-.33,1.179,1.179,0,0,0-.579-.131,1.321,1.321,0,0,0-.583.11.749.749,0,0,0-.323.279.682.682,0,0,0-.1.356.607.607,0,0,0,.049.251.515.515,0,0,0,.175.2,1.411,1.411,0,0,0,.356.171,5.551,5.551,0,0,0,.585.159,4.732,4.732,0,0,1,1.026.337,1.5,1.5,0,0,1,.6.482,1.191,1.191,0,0,1,.2.693,1.34,1.34,0,0,1-.139.609,1.358,1.358,0,0,1-.4.475,1.941,1.941,0,0,1-.618.309,2.722,2.722,0,0,1-.8.11,2.451,2.451,0,0,1-1.133-.239,1.753,1.753,0,0,1-.7-.618,1.48,1.48,0,0,1-.239-.8h.871a.888.888,0,0,0,.206.564,1.028,1.028,0,0,0,.459.3,1.767,1.767,0,0,0,.539.086,1.655,1.655,0,0,0,.6-.094.831.831,0,0,0,.368-.258.6.6,0,0,0,.126-.374" transform="translate(-3949.513 -23083.75)" fill="#6d6f72"/>
          <path id="Path_28294" data-name="Path 28294" d="M230.609,118.116h.773l.126,4.159v2.661h-.9Zm.286,0h.876l2.235,5.56,2.229-5.56h.881l-2.773,6.82h-.684Zm5.728,0h.773v6.82h-.9v-2.661Z" transform="translate(-3966.94 -23080.609)" fill="#6d6f72"/>
          <path id="Path_28295" data-name="Path 28295" d="M259.975,126.016l.361-.009a3.915,3.915,0,0,1-.105.935,2.035,2.035,0,0,1-.34.742,1.573,1.573,0,0,1-.614.49,2.185,2.185,0,0,1-.923.176,2.03,2.03,0,0,1-.677-.108,1.351,1.351,0,0,1-.526-.332,1.491,1.491,0,0,1-.34-.586,2.775,2.775,0,0,1-.119-.866v-3.27h.866v3.279a1.759,1.759,0,0,0,.077.565.885.885,0,0,0,.211.351.744.744,0,0,0,.3.18,1.158,1.158,0,0,0,.344.051,1.571,1.571,0,0,0,.876-.213,1.2,1.2,0,0,0,.466-.576,2.193,2.193,0,0,0,.143-.808m-.164,1.068v-3.9h.871v5.068h-.829Z" transform="translate(-3984.011 -23083.93)" fill="#6d6f72"/>
          <path id="Path_28296" data-name="Path 28296" d="M275.413,121.518h-2.74v-.665h2.74Zm-1.813-1.9h.866v5.045a.765.765,0,0,0,.079.389.384.384,0,0,0,.206.173.847.847,0,0,0,.272.042,1.332,1.332,0,0,0,.227-.021q.12-.021.18-.035l0,.707a2.2,2.2,0,0,1-.67.094,1.35,1.35,0,0,1-.586-.126.931.931,0,0,1-.424-.424,1.73,1.73,0,0,1-.157-.8Z" transform="translate(-3994.471 -23081.594)" fill="#6d6f72"/>
          <path id="Path_28297" data-name="Path 28297" d="M289.241,126.016l.361-.009a3.918,3.918,0,0,1-.105.935,2.035,2.035,0,0,1-.34.742,1.572,1.572,0,0,1-.614.49,2.185,2.185,0,0,1-.923.176,2.03,2.03,0,0,1-.677-.108,1.35,1.35,0,0,1-.526-.332,1.491,1.491,0,0,1-.34-.586,2.775,2.775,0,0,1-.119-.866v-3.27h.866v3.279a1.759,1.759,0,0,0,.077.565.884.884,0,0,0,.211.351.743.743,0,0,0,.3.18,1.158,1.158,0,0,0,.344.051,1.571,1.571,0,0,0,.876-.213,1.2,1.2,0,0,0,.466-.576,2.194,2.194,0,0,0,.143-.808m-.164,1.068v-3.9h.871v5.068h-.829Z" transform="translate(-4003.167 -23083.93)" fill="#6d6f72"/>
          <path id="Path_28298" data-name="Path 28298" d="M306.584,125l.009.609h-.876a3.36,3.36,0,0,0-.661.059,1.535,1.535,0,0,0-.487.176.828.828,0,0,0-.3.292.8.8,0,0,0-.1.41.891.891,0,0,0,.108.436.763.763,0,0,0,.325.311,1.137,1.137,0,0,0,.536.115,1.428,1.428,0,0,0,.7-.169,1.493,1.493,0,0,0,.485-.412.9.9,0,0,0,.194-.473l.37.417a1.257,1.257,0,0,1-.178.436,2.092,2.092,0,0,1-.958.817,1.849,1.849,0,0,1-.742.143,1.922,1.922,0,0,1-.9-.2,1.514,1.514,0,0,1-.6-.541,1.4,1.4,0,0,1-.213-.761,1.559,1.559,0,0,1,.159-.719,1.408,1.408,0,0,1,.459-.52,2.2,2.2,0,0,1,.721-.316,3.8,3.8,0,0,1,.941-.108Zm-.15,2.206V124.6a1.084,1.084,0,0,0-.12-.522.814.814,0,0,0-.358-.345,1.294,1.294,0,0,0-.59-.122,1.363,1.363,0,0,0-.574.113.972.972,0,0,0-.384.3.636.636,0,0,0-.138.393H303.4a1.141,1.141,0,0,1,.14-.538,1.582,1.582,0,0,1,.405-.485,2.037,2.037,0,0,1,.637-.347,2.529,2.529,0,0,1,.832-.129,2.4,2.4,0,0,1,.977.187,1.483,1.483,0,0,1,.665.565,1.721,1.721,0,0,1,.241.944v2.361a3.506,3.506,0,0,0,.045.538,2.041,2.041,0,0,0,.133.492v.075h-.9a1.645,1.645,0,0,1-.1-.4,3.185,3.185,0,0,1-.037-.466" transform="translate(-4014.515 -23083.75)" fill="#6d6f72"/>
          <rect id="Rectangle_3761" data-name="Rectangle 3761" width="0.871" height="7.194" transform="translate(-3705.079 -22962.869)" fill="#6d6f72"/>
          <path id="Path_28299" data-name="Path 28299" d="M340.705,124.936h-.9v-6.82h.9Zm3.321-6.079h-3.518v-.74h3.518Zm-.464,3.067h-3.054v-.74h3.054Z" transform="translate(-4038.408 -23080.609)" fill="#6d6f72"/>
          <path id="Path_28300" data-name="Path 28300" d="M359.839,126.016l.361-.009a3.915,3.915,0,0,1-.105.935,2.035,2.035,0,0,1-.34.742,1.572,1.572,0,0,1-.614.49,2.184,2.184,0,0,1-.923.176,2.03,2.03,0,0,1-.677-.108,1.35,1.35,0,0,1-.527-.332,1.491,1.491,0,0,1-.34-.586,2.775,2.775,0,0,1-.119-.866v-3.27h.866v3.279a1.76,1.76,0,0,0,.077.565.885.885,0,0,0,.211.351.743.743,0,0,0,.3.18,1.158,1.158,0,0,0,.344.051,1.571,1.571,0,0,0,.876-.213,1.2,1.2,0,0,0,.466-.576,2.193,2.193,0,0,0,.143-.808m-.164,1.068v-3.9h.871v5.068h-.829Z" transform="translate(-4049.375 -23083.93)" fill="#6d6f72"/>
          <path id="Path_28301" data-name="Path 28301" d="M375.194,124.092v3.986h-.866V123.01h.819Zm-.206,1.26-.361-.014a3.072,3.072,0,0,1,.154-.962,2.4,2.4,0,0,1,.422-.77,1.893,1.893,0,0,1,.648-.508,1.913,1.913,0,0,1,.836-.18,2.115,2.115,0,0,1,.674.1,1.263,1.263,0,0,1,.513.321,1.437,1.437,0,0,1,.326.569,2.8,2.8,0,0,1,.112.85v3.321h-.871v-3.33a1.482,1.482,0,0,0-.117-.639.734.734,0,0,0-.342-.351,1.244,1.244,0,0,0-.552-.11,1.266,1.266,0,0,0-.588.136,1.383,1.383,0,0,0-.455.375,1.825,1.825,0,0,0-.3.546,1.989,1.989,0,0,0-.105.649" transform="translate(-4061.007 -23083.75)" fill="#6d6f72"/>
          <path id="Path_28302" data-name="Path 28302" d="M391.436,121.749v-.1a3.67,3.67,0,0,1,.143-1.056,2.491,2.491,0,0,1,.408-.817,1.846,1.846,0,0,1,.632-.527,1.808,1.808,0,0,1,.822-.185,1.964,1.964,0,0,1,.836.167,1.655,1.655,0,0,1,.609.482,2.422,2.422,0,0,1,.4.761,4.8,4.8,0,0,1,.2,1.007v.431a4.531,4.531,0,0,1-.2,1,2.434,2.434,0,0,1-.4.759,1.666,1.666,0,0,1-.611.48,2,2,0,0,1-.843.166,1.728,1.728,0,0,1-.813-.192,1.892,1.892,0,0,1-.632-.539,2.557,2.557,0,0,1-.408-.817,3.517,3.517,0,0,1-.143-1.023m.871-.1v.1a3.157,3.157,0,0,0,.077.712,1.828,1.828,0,0,0,.241.586,1.193,1.193,0,0,0,.417.4,1.21,1.21,0,0,0,.6.143,1.273,1.273,0,0,0,.71-.182,1.368,1.368,0,0,0,.447-.483,2.8,2.8,0,0,0,.262-.651V121.14a2.658,2.658,0,0,0-.162-.5,1.649,1.649,0,0,0-.272-.431,1.209,1.209,0,0,0-.408-.3,1.337,1.337,0,0,0-.569-.113,1.2,1.2,0,0,0-.611.148,1.214,1.214,0,0,0-.419.4,1.854,1.854,0,0,0-.241.59,3.2,3.2,0,0,0-.077.714m2.539,1.593v-6.211h.871v7.195h-.8Z" transform="translate(-4072.205 -23079.9)" fill="#6d6f72"/>
          <rect id="Rectangle_3762" data-name="Rectangle 3762" width="7.994" height="0.343" transform="translate(-3815.958 -22958.447)" fill="#6d6f72"/>
          <rect id="Rectangle_3763" data-name="Rectangle 3763" width="7.994" height="0.343" transform="translate(-3673.538 -22958.361)" fill="#6d6f72"/>
        </g>
      </g>
    </g>
  </g>
</svg>
